<?xml version="1.0" encoding="UTF-8" standalone="no"?>
<svg
   xmlns:dc="http://purl.org/dc/elements/1.1/"
   xmlns:cc="http://creativecommons.org/ns#"
   xmlns:rdf="http://www.w3.org/1999/02/22-rdf-syntax-ns#"
   xmlns:svg="http://www.w3.org/2000/svg"
   xmlns="http://www.w3.org/2000/svg"
   xmlns:xlink="http://www.w3.org/1999/xlink"
   xmlns:sodipodi="http://sodipodi.sourceforge.net/DTD/sodipodi-0.dtd"
   xmlns:inkscape="http://www.inkscape.org/namespaces/inkscape"
   width="513px"
   height="410px"
   viewBox="0 0 513 410"
   version="1.1"
   id="svg2846"
   sodipodi:docname="72e04b5.svg"
   inkscape:version="0.92.3 (2405546, 2018-03-11)">
  <metadata
     id="metadata2850">
    <rdf:RDF>
      <cc:Work
         rdf:about="">
        <dc:format>image/svg+xml</dc:format>
        <dc:type
           rdf:resource="http://purl.org/dc/dcmitype/StillImage" />
      </cc:Work>
    </rdf:RDF>
  </metadata>
  <sodipodi:namedview
     pagecolor="#ffffff"
     bordercolor="#666666"
     borderopacity="1"
     objecttolerance="10"
     gridtolerance="10"
     guidetolerance="10"
     inkscape:pageopacity="0"
     inkscape:pageshadow="2"
     inkscape:window-width="1920"
     inkscape:window-height="1003"
     id="namedview2848"
     showgrid="false"
     inkscape:zoom="1.3245317"
     inkscape:cx="165.7484"
     inkscape:cy="182.84086"
     inkscape:window-x="0"
     inkscape:window-y="0"
     inkscape:window-maximized="1"
     inkscape:current-layer="Group-38" />
  <!-- Generator: Sketch 53 (72520) - https://sketchapp.com -->
  <title
     id="title2584">Group 38</title>
  <desc
     id="desc2586">Created with Sketch.</desc>
  <defs
     id="defs2705">
    <linearGradient
       x1="50%"
       y1="10.5393388%"
       x2="68.3652878%"
       y2="109.293916%"
       id="linearGradient-1">
      <stop
         stop-color="#F9FBFE"
         offset="0%"
         id="stop2588" />
      <stop
         stop-color="#D1E4FE"
         offset="54.6918857%"
         id="stop2590" />
      <stop
         stop-color="#B0D2FF"
         offset="100%"
         id="stop2592" />
    </linearGradient>
    <linearGradient
       x1="0%"
       y1="4.25330813%"
       x2="96.5611761%"
       y2="92.6003955%"
       id="linearGradient-2">
      <stop
         stop-color="#EE9AE5"
         offset="0%"
         id="stop2595" />
      <stop
         stop-color="#5961F9"
         offset="100%"
         id="stop2597" />
    </linearGradient>
    <linearGradient
       x1="50%"
       y1="0%"
       x2="50%"
       y2="100%"
       id="linearGradient-3">
      <stop
         stop-color="#D17AFF"
         offset="0%"
         id="stop2600" />
      <stop
         stop-color="#816DFF"
         offset="100%"
         id="stop2602" />
    </linearGradient>
    <linearGradient
       x1="91.2595145%"
       y1="45.9544309%"
       x2="28.6227637%"
       y2="55.0564481%"
       id="linearGradient-4">
      <stop
         stop-color="#00C6FB"
         offset="0%"
         id="stop2605" />
      <stop
         stop-color="#005BEA"
         offset="100%"
         id="stop2607" />
    </linearGradient>
    <linearGradient
       x1="82%"
       y1="7.9083484%"
       x2="9.67581956%"
       y2="131.231438%"
       id="linearGradient-5">
      <stop
         stop-color="#28CC70"
         offset="0%"
         id="stop2610" />
      <stop
         stop-color="#23B2D1"
         offset="100%"
         id="stop2612" />
    </linearGradient>
    <linearGradient
       x1="61.0726644%"
       y1="7.9083484%"
       x2="36.0469964%"
       y2="131.231438%"
       id="linearGradient-6">
      <stop
         stop-color="#28CC70"
         offset="0%"
         id="stop2615" />
      <stop
         stop-color="#23B2D1"
         offset="100%"
         id="stop2617" />
    </linearGradient>
    <linearGradient
       x1="100%"
       y1="13.9131931%"
       x2="-13.0065319%"
       y2="119.642865%"
       id="linearGradient-7">
      <stop
         stop-color="#28CC70"
         offset="0%"
         id="stop2620" />
      <stop
         stop-color="#23B2D1"
         offset="100%"
         id="stop2622" />
    </linearGradient>
    <linearGradient
       x1="47.3113567%"
       y1="23.671875%"
       x2="47.3113567%"
       y2="100%"
       id="linearGradient-8">
      <stop
         stop-color="#7ED500"
         offset="0%"
         id="stop2625" />
      <stop
         stop-color="#00BF8D"
         offset="100%"
         id="stop2627" />
    </linearGradient>
    <linearGradient
       x1="34.1672228%"
       y1="86.9467942%"
       x2="60.3654934%"
       y2="0%"
       id="linearGradient-9">
      <stop
         stop-color="#F2683E"
         offset="0%"
         id="stop2630" />
      <stop
         stop-color="#F8981C"
         offset="100%"
         id="stop2632" />
    </linearGradient>
    <linearGradient
       x1="50%"
       y1="78.6632153%"
       x2="50%"
       y2="15.1954876%"
       id="linearGradient-10">
      <stop
         stop-color="#F2683E"
         offset="0%"
         id="stop2635" />
      <stop
         stop-color="#F8981C"
         offset="100%"
         id="stop2637" />
    </linearGradient>
    <linearGradient
       x1="50%"
       y1="0%"
       x2="50%"
       y2="100%"
       id="linearGradient-11">
      <stop
         stop-color="#D17AFF"
         offset="0%"
         id="stop2640" />
      <stop
         stop-color="#816DFF"
         offset="100%"
         id="stop2642" />
    </linearGradient>
    <linearGradient
       x1="18.2495117%"
       y1="0%"
       x2="79.5668015%"
       y2="96.5611761%"
       id="linearGradient-12">
      <stop
         stop-color="#EE9AE5"
         offset="0%"
         id="stop2645" />
      <stop
         stop-color="#5961F9"
         offset="100%"
         id="stop2647" />
    </linearGradient>
    <linearGradient
       x1="24.3021461%"
       y1="-12.6813321%"
       x2="60.6344652%"
       y2="91.2780965%"
       id="linearGradient-13">
      <stop
         stop-color="#D17AFF"
         offset="0%"
         id="stop2650" />
      <stop
         stop-color="#816DFF"
         offset="100%"
         id="stop2652" />
    </linearGradient>
    <polygon
       id="path-14"
       points="0.000249377434 0.00158236025 116.923656 0.00158236025 116.923656 90 0.000249377434 90" />
    <linearGradient
       x1="12.3008417%"
       y1="42.7527161%"
       x2="104.491937%"
       y2="71.3225837%"
       id="linearGradient-16">
      <stop
         stop-color="#FFA9C1"
         stop-opacity="0.55188519"
         offset="0%"
         id="stop2656" />
      <stop
         stop-color="#FF3BC3"
         offset="100%"
         id="stop2658" />
    </linearGradient>
    <linearGradient
       x1="12.3008417%"
       y1="44.8785656%"
       x2="104.491937%"
       y2="65.0680194%"
       id="linearGradient-17">
      <stop
         stop-color="#ED92CB"
         offset="0%"
         id="stop2661" />
      <stop
         stop-color="#D60C98"
         offset="100%"
         id="stop2663" />
    </linearGradient>
    <linearGradient
       x1="12.3008417%"
       y1="49.2873042%"
       x2="104.491937%"
       y2="52.0968566%"
       id="linearGradient-18">
      <stop
         stop-color="#ED92CB"
         offset="0%"
         id="stop2666" />
      <stop
         stop-color="#D60C98"
         offset="100%"
         id="stop2668" />
    </linearGradient>
    <linearGradient
       x1="50%"
       y1="0%"
       x2="50%"
       y2="100%"
       id="linearGradient-19">
      <stop
         stop-color="#FFFFFF"
         offset="0%"
         id="stop2671" />
      <stop
         stop-color="#FFFFFF"
         stop-opacity="0"
         offset="100%"
         id="stop2673" />
    </linearGradient>
    <linearGradient
       x1="-1.11022302e-14%"
       y1="50%"
       x2="117.223717%"
       y2="50%"
       id="linearGradient-20">
      <stop
         stop-color="#4EE2FD"
         offset="0%"
         id="stop2676" />
      <stop
         stop-color="#7C70FB"
         offset="100%"
         id="stop2678" />
    </linearGradient>
    <rect
       id="path-21"
       x="322"
       y="91"
       width="94"
       height="48"
       rx="5" />
    <filter
       x="-132.4%"
       y="-159.4%"
       width="320.2%"
       height="531.2%"
       filterUnits="objectBoundingBox"
       id="filter-22">
      <feOffset
         dx="-21"
         dy="27"
         in="SourceAlpha"
         result="shadowOffsetOuter1"
         id="feOffset2682" />
      <feGaussianBlur
         stdDeviation="30"
         in="shadowOffsetOuter1"
         result="shadowBlurOuter1"
         id="feGaussianBlur2684" />
      <feColorMatrix
         values="0 0 0 0 0   0 0 0 0 0   0 0 0 0 0  0 0 0 0.25 0"
         type="matrix"
         in="shadowBlurOuter1"
         id="feColorMatrix2686" />
    </filter>
    <rect
       id="path-23"
       x="237"
       y="0"
       width="94"
       height="48"
       rx="5" />
    <filter
       x="-132.4%"
       y="-159.4%"
       width="320.2%"
       height="531.2%"
       filterUnits="objectBoundingBox"
       id="filter-24">
      <feOffset
         dx="-21"
         dy="27"
         in="SourceAlpha"
         result="shadowOffsetOuter1"
         id="feOffset2690" />
      <feGaussianBlur
         stdDeviation="30"
         in="shadowOffsetOuter1"
         result="shadowBlurOuter1"
         id="feGaussianBlur2692" />
      <feColorMatrix
         values="0 0 0 0 0   0 0 0 0 0   0 0 0 0 0  0 0 0 0.2 0"
         type="matrix"
         in="shadowBlurOuter1"
         id="feColorMatrix2694" />
    </filter>
    <rect
       id="path-25"
       x="0"
       y="223"
       width="94"
       height="48"
       rx="5" />
    <filter
       x="-106.9%"
       y="-165.6%"
       width="313.8%"
       height="518.8%"
       filterUnits="objectBoundingBox"
       id="filter-26">
      <feOffset
         dx="0"
         dy="21"
         in="SourceAlpha"
         result="shadowOffsetOuter1"
         id="feOffset2698" />
      <feGaussianBlur
         stdDeviation="30"
         in="shadowOffsetOuter1"
         result="shadowBlurOuter1"
         id="feGaussianBlur2700" />
      <feColorMatrix
         values="0 0 0 0 0   0 0 0 0 0   0 0 0 0 0  0 0 0 0.1 0"
         type="matrix"
         in="shadowBlurOuter1"
         id="feColorMatrix2702" />
    </filter>
  </defs>
  <g
     id="Page-1"
     stroke="none"
     stroke-width="1"
     fill="none"
     fill-rule="evenodd">
    <g
       id="Home-Page-Design-for-Dokan"
       transform="translate(-991.000000, -6290.000000)">
      <g
         id="Dokan-Overview"
         transform="translate(378.000000, 4411.000000)">
        <g
           id="4"
           transform="translate(85.000000, 1911.000000)">
          <g
             id="Group-38"
             transform="translate(587.000000, 0.000000)">
            <rect
               id="Rectangle-Copy-43"
               fill="#FFFFFF"
               fill-rule="nonzero"
               x="22"
               y="132"
               width="94"
               height="48"
               rx="5" />
            <rect
               id="Rectangle-Copy-44"
               fill="#FFFFFF"
               fill-rule="nonzero"
               x="356"
               y="203"
               width="94"
               height="48"
               rx="5" />
            <path
               d="M332.83961,169.287182 C326.929338,148.601131 326.929338,180.368995 318.06393,177.413845 C309.198521,174.458694 314.37001,170.764757 308.459737,161.899306 C302.549465,153.033856 305.504601,149.339918 289.251353,155.989006 C272.998104,162.638094 273.736888,159.682944 275.214456,167.809607 C276.692024,175.936269 272.25932,176.675057 264.87148,190.71202 C257.48364,204.748983 261.17756,215.092009 252.312152,226.173822 C243.446743,237.255635 235.320119,245.382298 226.454711,237.994422 C217.589303,230.606547 217.589303,234.300485 218.328087,221.741097 C219.066871,209.181708 225.715927,192.189595 219.066871,184.062932 C212.417814,175.936269 207.246326,181.107782 193.20943,173.719907 C179.172533,166.332032 198.380918,164.115669 197.642134,153.772643 C196.90335,143.429618 209.462678,134.564168 217.589303,133.086593 C225.715927,131.609017 218.328087,140.474468 243.446743,138.258105 C268.5654,136.041743 250.834584,122.00478 227.932279,116.094479 C205.029974,110.184179 214.634167,99.8411536 224.238359,99.102366 C233.842551,98.3635785 233.842551,93.1920658 233.842551,93.1920658 C222.022007,68.8120772 250.834584,66.5957146 250.834584,66.5957146 C275.982792,72.7424268 296.259458,72.6522948 311.76358,70.1655359 C286.498644,52.4213369 255.717946,42 222.500739,42 C193.271488,42 165.929091,50.0690374 142.570218,64.0971351 L144.080292,63.395287 C144.080292,63.395287 113.790147,89.9916382 118.222851,101.812239 C122.655556,113.632839 118.961635,115.110414 124.871908,120.281927 C130.78218,125.45344 129.304612,124.714652 137.431236,117.326777 C145.55786,109.938902 151.468133,133.580103 151.468133,133.580103 C151.468133,133.580103 140.386372,158.698879 116.006499,161.654029 C91.6266266,164.609179 96.0593308,147.617066 91.6266266,164.609179 C87.1939225,181.601292 87.9327065,178.646142 93.1041947,186.772805 C98.2697726,194.889125 67.3191547,205.951729 68.7228443,174.313892 C67.5925048,181.877599 67,189.620092 67,197.5 C67,283.379618 136.620051,353 222.500739,353 C308.379949,353 378,283.379618 378,197.5 C378,182.430212 375.848661,167.862799 371.848884,154.082934 C358.476893,172.703335 340.22745,199.577471 340.22745,199.577471 C340.22745,199.577471 338.749882,189.973233 332.83961,169.287182"
               id="Fill-1"
               fill="url(#linearGradient-1)" />
            <path
               d="M250.844049,67 C250.844049,67 221.998098,69.2387834 233.832334,93.8654012 C233.832334,93.8654012 233.832334,99.0892292 224.217018,99.8354904 C214.601701,100.581752 204.986384,111.029408 227.915216,116.999497 C250.844049,122.969586 268.595403,137.148548 243.447651,139.387331 C218.2999,141.626114 225.696297,132.670981 217.56026,134.163503 C209.424222,135.656025 196.850347,144.611159 197.589986,155.058815 C198.329626,165.506471 179.098992,167.745255 193.152148,175.207866 C207.205303,182.670477 212.382781,177.446649 219.039539,185.655522 C225.696297,193.864395 219.039539,211.028401 218.2999,223.71484 C217.56026,236.40128 217.56026,232.669974 226.435937,240.132586 C235.311614,247.595197 243.447651,239.386324 252.323328,228.192407 C261.199006,216.99849 257.500807,206.550834 264.897204,192.371872 C272.293602,178.192911 276.731441,177.446649 275.252161,169.237777 C273.772881,161.028904 273.033242,164.013949 289.305316,157.297599 C305.577391,150.581248 302.618832,154.312554 308.53595,163.267688 C314.453068,172.222821 309.27559,175.954127 318.151267,178.939172 C327.026944,181.924216 327.026944,149.834987 332.944062,170.730299 C338.86118,191.625611 330,201.327006 340.34046,201.327006 C350.68092,201.327006 358.611041,174.181011 372,155.372245 C362.011905,120.648714 340.469157,90.8893118 311.843619,70.6059339 C296.321539,73.1178489 276.021386,73.2088927 250.844049,67 Z"
               id="Fill-3"
               fill="url(#linearGradient-2)"
               opacity="0.665690104" />
            <path
               d="M92.194161,186.320996 C87.0721247,178.198056 86.3404052,181.151853 90.7307221,164.167524 C95.1210389,147.183195 90.7307221,164.167524 114.877465,161.213728 C139.024208,158.259931 150,133.152663 150,133.152663 C150,133.152663 144.146244,109.522292 136.09733,116.906783 C128.048416,124.291274 129.511855,125.029723 123.658099,119.860579 C117.804343,114.691436 121.46294,113.214537 117.072623,101.399352 C112.682306,89.5841668 142.682805,63 142.682805,63 L141.187171,63.7015266 C102.586041,87.0911628 74.9782651,127.067842 68.0459547,173.867791 C66.6556877,205.491134 97.3103436,194.433598 92.194161,186.320996"
               id="Fill-5"
               fill="url(#linearGradient-3)" />
            <g
               id="Group-25"
               transform="translate(153.000000, 255.000000)">
              <path
                 d="M199.751098,54.7796738 C208.756744,49.8871213 213.903654,56.0840282 212.295124,61.3024246 C210.686594,66.5217996 215.833504,59.3454037 219.693205,58.6937157 C223.552905,58.0410492 227.090321,58.0410492 228.698851,64.2379561 C230.307381,70.4358415 220.869304,95.0214895 194.816327,96 C168.763349,96.9785105 132.865346,85.4403213 120,92.9415827 C107.134654,100.443823 157.937999,67.1734876 162.440339,63.5862681 C166.943645,59.9980702 186.242146,53.8011633 186.242146,53.8011633 C187.528392,55.7581842 190.745452,59.6722262 199.751098,54.7796738 Z"
                 id="Fill-7"
                 fill="url(#linearGradient-4)" />
              <path
                 d="M135,58 C135,58 156.14747,25.4911921 171,13"
                 id="Stroke-17"
                 stroke="url(#linearGradient-5)" />
              <path
                 d="M122,62 C122,62 130.494078,38.1587374 138,28"
                 id="Stroke-23"
                 stroke="url(#linearGradient-6)" />
              <path
                 d="M143,67 C143,67 159.379509,48.5457442 170,42"
                 id="Stroke-29"
                 stroke="url(#linearGradient-7)" />
              <path
                 d="M101.280222,98.9822993 L0.00772275596,98.9822993 C0.00772275596,98.9822993 -1.59309425,87.7853986 41.3005431,93.2235641 C41.3005431,93.2235641 31.6975616,90.6647662 9.9304835,73.0679912 C9.9304835,73.0679912 -3.19295097,58.6711534 48.0226301,74.6679598 C41.6212826,68.9092247 2.24809833,30.1980474 72.6706026,69.5484443 C71.0083265,67.2305534 68.4856233,64.9347377 67.3880025,62.2780412 C64.4677358,55.2091938 66.8963298,47.3389225 74.543184,44.8367521 C76.2842045,44.2666373 78.1260564,44.0670012 79.9573449,44.0094138 C87.1211691,43.7829036 94.2878742,47.66909 98.9837321,52.9584882 C99.7166931,53.7841314 101.220057,55.3713762 102.540532,57.032332 C118.292993,33.2918359 121.766118,55.2562579 121.766118,55.2562579 C158.257447,32.5839334 132.329397,69.1843897 132.329397,69.1843897 C202.751902,29.3453075 163.379678,68.5362759 156.97737,74.3663855 C208.192951,58.1713127 195.069516,72.7465867 195.069516,72.7465867 C173.302438,90.5614583 163.699457,93.1519703 163.699457,93.1519703 C206.593094,87.6464035 204.992277,98.9820799 204.992277,98.9820799 L103.676813,98.9820799 C103.689645,99.0056996 103.703991,99.0061715 103.719923,98.9822993 L101.322948,98.9822993 C101.310217,99.0057035 101.295997,99.0060961 101.280222,98.9822993 Z"
                 id="Combined-Shape"
                 fill="url(#linearGradient-8)" />
              <path
                 d="M185.014303,20.0141502 C182.56448,22.4639547 176.318419,20.1909708 171.064141,14.9357451 C165.809863,9.68150718 163.535873,3.43549361 165.985697,0.985689148 C168.43552,-1.46411532 174.681581,0.809856408 179.935859,6.06409429 C185.190137,11.3183322 187.464127,17.5653336 185.014303,20.0141502"
                 id="Fill-13"
                 fill="url(#linearGradient-9)" />
              <path
                 d="M144.762564,29.1970392 C143.841794,30.5245866 140.516364,30.169071 137.33341,28.4036324 C134.151426,26.6381939 132.317642,24.129641 133.237442,22.8029608 C134.158211,21.4754134 137.483641,21.830929 140.665626,23.5963676 C143.848579,25.3618061 145.682363,27.8694919 144.762564,29.1970392"
                 id="Fill-19"
                 fill="#FFFFFF" />
              <path
                 d="M176.345184,45.6477592 C175.054878,46.7640105 172.287357,45.1389846 170.163634,42.0201968 C168.039911,38.9003914 167.36451,35.4681984 168.654816,34.3519471 C169.945122,33.2367134 172.713546,34.8597041 174.836366,37.9795095 C176.960089,41.0982974 177.63549,44.5315079 176.345184,45.6477592"
                 id="Fill-25"
                 fill="url(#linearGradient-10)" />
            </g>
            <path
               d="M161.658442,115 C161.658442,115 153.609165,94.3025985 151.093106,82.9692928 C148.577047,71.6345087 197.882451,65.7209655 198.887667,73.605197 C199.894392,81.490907 193.857058,88.8828361 191.845116,99.7238393 C189.831665,110.564843 161.658442,115 161.658442,115"
               id="Fill-31"
               fill="url(#linearGradient-11)"
               opacity="0.597353981" />
            <path
               d="M153,225.445506 C153,225.445506 148.4554,232.528797 142.215031,242.406194 C135.974663,252.283592 97.5705843,213.276853 102.42257,206.92838 C107.276027,200.578411 115.250403,173.274891 122.604125,181.546463 C131.91982,192.02249 153,225.445506 153,225.445506"
               id="Fill-33"
               fill="url(#linearGradient-12)"
               opacity="0.658644903" />
            <g
               id="Group-24"
               transform="translate(68.000000, 288.000000)">
              <path
                 d="M108.412116,86.8601978 C99.7084739,84.6909443 96.048789,73.3356805 98.7410954,63.0718066 C101.432563,52.8079327 110.670639,46.2445502 119.374281,48.4146217 C128.077084,50.5838752 132.950754,60.6637061 130.259286,70.928398 C127.567819,81.1930899 117.115758,89.0294514 108.412116,86.8601978 Z"
                 id="Fill-35"
                 fill="url(#linearGradient-13)" />
              <g
                 id="Group-39">
                <mask
                   id="mask-15"
                   fill="white">
                  <use
                     xlink:href="#path-14"
                     id="use2772" />
                </mask>
                <g
                   id="Clip-38" />
                <path
                   d="M116.065436,48.4779941 C100.743397,46.8981388 90.9169473,35.6869869 83.9575806,23.1329579 C75.6081631,8.06446459 60.4004434,-0.64968452 43.0272929,0.0396312831 C18.305429,1.02163606 -0.942384895,21.9330994 0.0359524477,46.7476368 C1.01346139,71.5621742 21.8476563,90.8821413 46.5686918,89.9001365 C46.5935438,89.899305 46.6175673,89.8968105 46.6415908,89.895979 C50.665117,90.2768073 60.3176037,90.0157154 73.8295939,82.0224792 C91.3717374,71.64283 102.478062,83.4260559 103.202909,84.049683 L116.923656,48.737423 C116.765432,48.7124779 116.233601,48.4954557 116.065436,48.4779941"
                   id="Fill-37"
                   fill="url(#linearGradient-16)"
                   mask="url(#mask-15)" />
              </g>
              <path
                 d="M85.1311663,49.330806 L64.0858207,30.321453 C63.837178,30.0971613 63.5109389,29.9913158 63.1813622,30.0005562 C62.8476138,30.0190372 62.5413995,30.167725 62.317788,30.418058 C61.8588838,30.9372052 61.9022711,31.7344068 62.4137407,32.197271 L83.7327602,51.4519168 L112.085529,63 L113,60.6545975 L85.1311663,49.330806 Z"
                 id="Fill-40"
                 fill="url(#linearGradient-17)" />
              <path
                 d="M79.733204,60.5114583 L51.2628593,60 C50.9087176,60.002553 50.6182883,60.1199927 50.3799873,60.3565741 C50.1408589,60.5940064 50.0059872,60.913136 50.0001952,61.2535408 C49.9944031,61.5947967 50.1176908,61.9173303 50.3485448,62.1632727 C50.5785714,62.4083642 50.8880317,62.5470792 51.2198327,62.5521853 L79.2532923,63.0551334 L107.093132,74 L108,71.6231232 L79.9359253,60.5914534 L79.733204,60.5114583 Z"
                 id="Fill-42"
                 fill="url(#linearGradient-18)" />
              <polyline
                 id="Stroke-44"
                 stroke="url(#linearGradient-19)"
                 stroke-width="2"
                 stroke-linecap="round"
                 stroke-linejoin="round"
                 points="54 23.3439344 43.9582955 22 49.7479857 31.3915243 39.1509305 32.340141 43.4518838 40.7422791 35.0251645 42.245651 38.4707501 51.7995249 29 51.6662963 33.0300159 60" />
            </g>
            <text
               id="Vendor-Review-Copy-5"
               font-family="Lato-Regular, Lato"
               font-size="14"
               font-weight="normal"
               line-spacing="20"
               letter-spacing="0.1272728"
               fill="#2E2E2E">
              <tspan
                 x="41.0462268"
                 y="79"
                 id="tspan2782">Vendor Review</tspan>
            </text>
            <rect
               id="rect2785"
               fill="url(#linearGradient-20)"
               fill-rule="nonzero"
               x="8"
               y="48"
               width="151"
               height="48"
               rx="5" />
            <g
               id="Rectangle-Copy-40"
               fill-rule="nonzero">
              <use
                 fill="black"
                 fill-opacity="1"
                 filter="url(#filter-22)"
                 xlink:href="#path-21"
                 id="use2787" />
              <use
                 fill="#FFFFFF"
                 xlink:href="#path-21"
                 id="use2789" />
            </g>
            <g
               id="Rectangle-Copy-41"
               fill-rule="nonzero">
              <use
                 fill="black"
                 fill-opacity="1"
                 filter="url(#filter-24)"
                 xlink:href="#path-23"
                 id="use2792" />
              <use
                 fill="#FFFFFF"
                 xlink:href="#path-23"
                 id="use2794" />
            </g>
            <g
               id="flaticon1549344317-svg"
               transform="translate(271.000000, 11.000000)"
               opacity="0.3">
              <path
                 d="M0.5,0 C0.223872387,0 0,0.351355469 0,0.784722656 L0,1.56944531 L0.52378179,9.93966797 L0,19.3561367 L0,25.2152773 C0,25.6486445 0.223872387,26 0.5,26 C0.776127613,26 1,25.6486445 1,25.2152773 L1,0.784722656 C0.999967644,0.351355469 0.776127613,0 0.5,0 Z"
                 id="path2797"
                 fill="#535650" />
              <polygon
                 id="polygon2799"
                 points="24.5000243 5 23 13 26 10.7142936 26 5"
                 fill="#FF2E23"
                 style="fill:#55d400" />
              <rect
                 id="rect2801"
                 x="13"
                 y="5"
                 width="12"
                 height="8"
                 fill="#FF4A26"
                 style="fill:#44aa00" />
              <polygon
                 id="polygon2803"
                 points="24.5000243 24 26 24 26 18.2857064 23 16"
                 fill="#FF2E23" />
              <rect
                 id="rect2805"
                 x="13"
                 y="16"
                 width="12"
                 height="8"
                 fill="#FF4A26" />
              <polygon
                 id="polygon2807"
                 points="24.5000243 19 26 19 26 11 24.5000243 11 23 15.0000277"
                 fill="#FFCE53" />
              <rect
                 id="rect2809"
                 x="13"
                 y="11"
                 width="12"
                 height="8"
                 fill="#FFE373" />
              <path
                 d="M12.2856905,1 L11,1 L11,9 L14,9 L14,3.28576183 C13.9999584,2.02340094 13.232413,1 12.2856905,1 Z"
                 id="path2811"
                 fill="#FF2E23"
                 style="fill:#55d400" />
              <path
                 d="M10.9282955,1 L0,1 L0,7.47616935 L13,9 L13,3.28574598 C13,2.02339384 12.0724664,1 10.9282955,1 Z"
                 id="path2813"
                 fill="#FF4A26"
                 style="fill:#44aa00" />
              <path
                 d="M7,17 L14,17 L14,9.16738897 C14,8.12461577 13.3389778,7.24846036 12.4444612,7 L7,17 Z"
                 id="path2815"
                 fill="#FFCE53" />
              <path
                 d="M0,7 L0,14.7777838 L13,17 L13,7.06999871 C12.8344929,7.02426766 12.6608914,7 12.4820613,7 L0,7 Z"
                 id="path2817"
                 fill="#FFE373" />
              <path
                 d="M13.4998301,14 L12,20 L15,20 L15,15.9576211 C15,15.0157204 14.3624921,14.2243041 13.4998301,14 Z"
                 id="path2819"
                 fill="#FF2E23" />
              <path
                 d="M0,13 L0,18.7142936 L10.4103568,18.7142936 L13,21 L13,13.0719986 C12.8344929,13.024961 12.6608914,13 12.4820613,13 L0,13 Z"
                 id="path2821"
                 fill="#FF4A26" />
              <path
                 d="M12,19 L10,19 L10,21 C10,22.1045696 10.8954789,23 12,23 C13.1045211,23 14,22.1045211 14,21 C14,19.8954304 13.1045211,19 12,19 Z"
                 id="path2823"
                 fill="#DE2318" />
            </g>
            <rect
               id="Rectangle-Copy-46"
               fill="#9013FE"
               fill-rule="nonzero"
               opacity="0.15"
               x="350"
               y="111"
               width="38"
               height="8"
               rx="4" />
            <rect
               id="Rectangle-Copy-45"
               fill="#4A90E2"
               fill-rule="nonzero"
               opacity="0.15"
               x="384"
               y="223"
               width="38"
               height="8"
               rx="4" />
            <g
               id="Rectangle-Copy-42"
               fill-rule="nonzero">
              <use
                 fill="black"
                 fill-opacity="1"
                 filter="url(#filter-26)"
                 xlink:href="#path-25"
                 id="use2828" />
              <use
                 fill="#FFFFFF"
                 xlink:href="#path-25"
                 id="use2830" />
            </g>
            <text
               id="20+-copy"
               font-size="23"
               font-weight="bold"
               line-spacing="20"
               letter-spacing="0.209091"
               style="font-weight:bold;font-size:23px;font-family:Lato-Bold, Lato;letter-spacing:0.20909099;fill:#ffffff">
              <tspan
                 x="28"
                 y="84"
                 id="tspan2833">2+</tspan>
            </text>
            <text
               id="Language"
               font-size="14"
               font-weight="normal"
               line-spacing="20"
               letter-spacing="0.1272728"
               style="font-weight:normal;font-size:14px;font-family:Lato-Regular, Lato;letter-spacing:0.1272728;fill:#ffffff"
               x="-16.609644">
              <tspan
                 x="60.600266"
                 y="77"
                 id="tspan2836">Languages</tspan>
            </text>
            <path
               d="M49.0943299,244.185218 L60,244.185218 L60,246.816741 L49.0943299,246.816741 C48.6735992,246.816741 48.3326111,247.153417 48.3326111,247.568828 L48.3326111,255 L45.6673889,255 L45.6673889,247.568828 C45.6673889,247.153417 45.3264008,246.816741 44.9056701,246.816741 L34,246.816741 L34,244.185218 L44.9056701,244.185218 C45.3264008,244.185218 45.6673889,243.848541 45.6673889,243.433131 L45.6673889,236 L48.3326111,236 L48.3326111,243.433131 C48.3326111,243.848541 48.6735992,244.185218 49.0943299,244.185218 Z M50,241 L50,236 L54.2755922,236 C54.5218203,236 54.7638183,236.018653 55,236.054738 L50,241 Z M51,243 L57.1293647,237 C58.8327645,237.861989 60,239.60293 60,241.606014 L60,243 L51,243 Z M51,249 L60,249 L60,250.390495 C60,252.397876 58.8254708,254.142059 57.1133784,255 L51,249 Z M44,241 L39,236.054738 C39.2361817,236.018653 39.4781797,236 39.7244078,236 L44,236 L44,241 Z M50,250 L55,254.948004 C54.7689477,254.982203 54.532411,255 54.2916283,255 L50,255 L50,250 Z M43,243 L34,243 L34,241.606014 C34,239.60293 35.1672355,237.861796 36.8706353,237 L43,243 Z M43,249 L36.8720136,255 C35.1678262,254.138037 34,252.396376 34,250.392327 L34,249 L43,249 Z M44,250 L44,256.540017 L43.1381925,257.7213 C43.0098381,257.897321 42.8137804,258 42.6064389,258 C42.3990973,258 42.2032159,257.897321 42.0746853,257.7213 L40.4263549,255.461793 L39.7230509,255.461793 C39.4772735,255.461793 39.2357276,255.44141 39,255.402357 L44,250 Z"
               id="path2839"
               fill="#A7E512"
               fill-rule="nonzero"
               opacity="0.35" />
          </g>
        </g>
      </g>
    </g>
  </g>
</svg>
