<?xml version="1.0" encoding="UTF-8" standalone="no"?>
<svg
   xmlns:dc="http://purl.org/dc/elements/1.1/"
   xmlns:cc="http://creativecommons.org/ns#"
   xmlns:rdf="http://www.w3.org/1999/02/22-rdf-syntax-ns#"
   xmlns:svg="http://www.w3.org/2000/svg"
   xmlns="http://www.w3.org/2000/svg"
   xmlns:xlink="http://www.w3.org/1999/xlink"
   xmlns:sodipodi="http://sodipodi.sourceforge.net/DTD/sodipodi-0.dtd"
   xmlns:inkscape="http://www.inkscape.org/namespaces/inkscape"
   height="340"
   viewBox="0 0 520 340"
   width="520"
   version="1.1"
   id="svg2142"
   sodipodi:docname="get-infinite-opportunities.svg"
   inkscape:version="0.92.3 (2405546, 2018-03-11)">
  <metadata
     id="metadata2146">
    <rdf:RDF>
      <cc:Work
         rdf:about="">
        <dc:format>image/svg+xml</dc:format>
        <dc:type
           rdf:resource="http://purl.org/dc/dcmitype/StillImage" />
      </cc:Work>
    </rdf:RDF>
  </metadata>
  <sodipodi:namedview
     pagecolor="#ffffff"
     bordercolor="#666666"
     borderopacity="1"
     objecttolerance="10"
     gridtolerance="10"
     guidetolerance="10"
     inkscape:pageopacity="0"
     inkscape:pageshadow="2"
     inkscape:window-width="1920"
     inkscape:window-height="1003"
     id="namedview2144"
     showgrid="false"
     inkscape:zoom="2.2588235"
     inkscape:cx="260"
     inkscape:cy="170"
     inkscape:window-x="0"
     inkscape:window-y="0"
     inkscape:window-maximized="1"
     inkscape:current-layer="g2140" />
  <defs
     id="defs1896">
    <rect
       id="b"
       height="80"
       rx="6"
       width="80" />
    <filter
       id="a"
       height="227.5%"
       width="227.5%"
       x="-63.8%"
       y="-48.8%">
      <feOffset
         dy="12"
         in="SourceAlpha"
         result="shadowOffsetOuter1"
         id="feOffset1873" />
      <feGaussianBlur
         in="shadowOffsetOuter1"
         result="shadowBlurOuter1"
         stdDeviation="15"
         id="feGaussianBlur1875" />
      <feColorMatrix
         in="shadowBlurOuter1"
         values="0 0 0 0 0 0 0 0 0 0 0 0 0 0 0 0 0 0 0.14 0"
         id="feColorMatrix1877" />
    </filter>
    <rect
       id="d"
       height="80"
       rx="6"
       width="80" />
    <filter
       id="c"
       height="227.5%"
       width="227.5%"
       x="-63.8%"
       y="-48.8%">
      <feOffset
         dy="12"
         in="SourceAlpha"
         result="shadowOffsetOuter1"
         id="feOffset1881" />
      <feGaussianBlur
         in="shadowOffsetOuter1"
         result="shadowBlurOuter1"
         stdDeviation="15"
         id="feGaussianBlur1883" />
      <feColorMatrix
         in="shadowBlurOuter1"
         values="0 0 0 0 0 0 0 0 0 0 0 0 0 0 0 0 0 0 0.14 0"
         id="feColorMatrix1885" />
    </filter>
    <rect
       id="f"
       height="80"
       rx="6"
       width="80" />
    <filter
       id="e"
       height="227.5%"
       width="227.5%"
       x="-63.8%"
       y="-48.8%">
      <feOffset
         dy="12"
         in="SourceAlpha"
         result="shadowOffsetOuter1"
         id="feOffset1889" />
      <feGaussianBlur
         in="shadowOffsetOuter1"
         result="shadowBlurOuter1"
         stdDeviation="15"
         id="feGaussianBlur1891" />
      <feColorMatrix
         in="shadowBlurOuter1"
         values="0 0 0 0 0 0 0 0 0 0 0 0 0 0 0 0 0 0 0.14 0"
         id="feColorMatrix1893" />
    </filter>
  </defs>
  <g
     fill="none"
     fill-rule="evenodd"
     id="g2140">
    <ellipse
       cx="100"
       cy="320.5"
       fill="#eceeef"
       fill-rule="nonzero"
       rx="100"
       ry="1.5"
       transform="matrix(1 0 0 -1 0 641)"
       id="ellipse1898" />
    <path
       d="M440 57H140c-2.485 0-4.735 1.007-6.364 2.636S131 63.515 131 66v219h318V66c0-2.485-1.007-4.735-2.636-6.364S442.485 57 440 57z"
       fill="#fff"
       fill-rule="nonzero"
       stroke="#e6e7e8"
       stroke-width="2"
       id="path1900" />
    <path
       d="M378 108h60v34h-60z"
       fill="#faeed5"
       id="path1902" />
    <path
       d="M384 115c0-.552.455-1 .992-1h18.016c.548 0 .992.444.992 1 0 .552-.455 1-.992 1h-18.016a.993.993 0 0 1-.992-1zm0 7a1 1 0 0 1 1.003-1h45.994a.999.999 0 1 1 0 2h-45.994a.999.999 0 0 1-1.003-1zm0 4a1 1 0 0 1 1.003-1h45.994a.999.999 0 1 1 0 2h-45.994a.999.999 0 0 1-1.003-1zm0 4a1 1 0 0 1 1.003-1h45.994a.999.999 0 1 1 0 2h-45.994a.999.999 0 0 1-1.003-1zm0 4c0-.552.45-1 1.009-1h37.982c.557 0 1.009.444 1.009 1 0 .552-.45 1-1.009 1H385.01a1.002 1.002 0 0 1-1.009-1z"
       fill="#ddd3be"
       id="path1904" />
    <path
       d="M378 152h60v100h-60z"
       fill="#f7f8fa"
       id="path1906" />
    <path
       d="M384 159c0-.552.455-1 .992-1h18.016c.548 0 .992.444.992 1 0 .552-.455 1-.992 1h-18.016a.993.993 0 0 1-.992-1zm0 7a1 1 0 0 1 1.003-1h45.994a.999.999 0 1 1 0 2h-45.994a.999.999 0 0 1-1.003-1zm0 4a1 1 0 0 1 1.003-1h45.994a.999.999 0 1 1 0 2h-45.994a.999.999 0 0 1-1.003-1zm0 4c0-.552.45-1 1.009-1h37.982c.557 0 1.009.444 1.009 1 0 .552-.45 1-1.009 1H385.01a1.002 1.002 0 0 1-1.009-1zm0 10a1 1 0 0 1 1.003-1h45.994a.999.999 0 1 1 0 2h-45.994a.999.999 0 0 1-1.003-1zm0 4a1 1 0 0 1 1.003-1h45.994a.999.999 0 1 1 0 2h-45.994a.999.999 0 0 1-1.003-1zm0 4c0-.552.45-1 1.009-1h37.982c.557 0 1.009.444 1.009 1 0 .552-.45 1-1.009 1H385.01a1.002 1.002 0 0 1-1.009-1zm0 10a1 1 0 0 1 1.003-1h45.994a.999.999 0 1 1 0 2h-45.994a.999.999 0 0 1-1.003-1zm0 4a1 1 0 0 1 1.003-1h45.994a.999.999 0 1 1 0 2h-45.994a.999.999 0 0 1-1.003-1zm0 4c0-.552.45-1 1.009-1h37.982c.557 0 1.009.444 1.009 1 0 .552-.45 1-1.009 1H385.01a1.002 1.002 0 0 1-1.009-1zm0 10a1 1 0 0 1 1.003-1h45.994a.999.999 0 1 1 0 2h-45.994a.999.999 0 0 1-1.003-1zm0 4a1 1 0 0 1 1.003-1h45.994a.999.999 0 1 1 0 2h-45.994a.999.999 0 0 1-1.003-1zm0 4c0-.552.45-1 1.009-1h37.982c.557 0 1.009.444 1.009 1 0 .552-.45 1-1.009 1H385.01a1.002 1.002 0 0 1-1.009-1zm0 10a1 1 0 0 1 1.003-1h45.994a.999.999 0 1 1 0 2h-45.994a.999.999 0 0 1-1.003-1zm0 4a1 1 0 0 1 1.003-1h45.994a.999.999 0 1 1 0 2h-45.994a.999.999 0 0 1-1.003-1zm0 4c0-.552.45-1 1.009-1h37.982c.557 0 1.009.444 1.009 1 0 .552-.45 1-1.009 1H385.01a1.002 1.002 0 0 1-1.009-1z"
       fill="#d4d5d7"
       id="path1908" />
    <g
       fill-rule="nonzero"
       transform="translate(130 56)"
       id="g1992">
      <rect
         fill="#ebedee"
         height="4"
         rx="2"
         width="60"
         x="78"
         y="52"
         id="rect1910" />
      <path
         d="M78.5 66.5h159v19h-159z"
         fill="#fff"
         stroke="#ebedee"
         id="path1912" />
      <rect
         fill="#ebedee"
         height="4"
         rx="2"
         width="18"
         x="85"
         y="74"
         id="rect1914" />
      <rect
         fill="#fadada"
         height="4"
         rx="2"
         width="30"
         x="115"
         y="74"
         id="rect1916" />
      <rect
         fill="#fadada"
         height="4"
         rx="2"
         width="30"
         x="149"
         y="74"
         id="rect1918" />
      <rect
         fill="#ebedee"
         height="4"
         rx="2"
         width="12"
         x="215"
         y="74"
         id="rect1920" />
      <path
         d="M78.5 85.5h159v19h-159z"
         fill="#fff"
         stroke="#ebedee"
         id="path1922" />
      <rect
         fill="#ebedee"
         height="4"
         rx="2"
         width="18"
         x="85"
         y="93"
         id="rect1924" />
      <rect
         fill="#d0e9d6"
         height="4"
         rx="2"
         width="30"
         x="115"
         y="93"
         id="rect1926" />
      <rect
         fill="#d0e9d6"
         height="4"
         rx="2"
         width="30"
         x="149"
         y="93"
         id="rect1928" />
      <rect
         fill="#ebedee"
         height="4"
         rx="2"
         width="12"
         x="215"
         y="93"
         id="rect1930" />
      <path
         d="M78.5 104.5h159v19h-159z"
         fill="#fff"
         stroke="#ebedee"
         id="path1932" />
      <rect
         fill="#ebedee"
         height="4"
         rx="2"
         width="18"
         x="85"
         y="112"
         id="rect1934" />
      <rect
         fill="#fadada"
         height="4"
         rx="2"
         width="30"
         x="115"
         y="112"
         id="rect1936" />
      <rect
         fill="#fadada"
         height="4"
         rx="2"
         width="30"
         x="149"
         y="112"
         id="rect1938" />
      <rect
         fill="#ebedee"
         height="4"
         rx="2"
         width="12"
         x="215"
         y="112"
         id="rect1940" />
      <path
         d="M78.5 123.5h159v19h-159z"
         fill="#fff"
         stroke="#ebedee"
         id="path1942" />
      <rect
         fill="#ebedee"
         height="4"
         rx="2"
         width="18"
         x="85"
         y="131"
         id="rect1944" />
      <rect
         fill="#fadada"
         height="4"
         rx="2"
         width="30"
         x="115"
         y="131"
         id="rect1946" />
      <rect
         fill="#fadada"
         height="4"
         rx="2"
         width="30"
         x="149"
         y="131"
         id="rect1948" />
      <rect
         fill="#ebedee"
         height="4"
         rx="2"
         width="12"
         x="215"
         y="131"
         id="rect1950" />
      <path
         d="M78.5 142.5h159v19h-159z"
         fill="#fff"
         stroke="#ebedee"
         id="path1952" />
      <rect
         fill="#ebedee"
         height="4"
         rx="2"
         width="18"
         x="85"
         y="150"
         id="rect1954" />
      <rect
         fill="#fbe5b4"
         height="4"
         rx="2"
         width="30"
         x="115"
         y="150"
         id="rect1956" />
      <rect
         fill="#fbe5b4"
         height="4"
         rx="2"
         width="30"
         x="149"
         y="150"
         id="rect1958" />
      <rect
         fill="#ebedee"
         height="4"
         rx="2"
         width="12"
         x="215"
         y="150"
         id="rect1960" />
      <path
         d="M78.5 161.5h159v19h-159z"
         fill="#fff"
         stroke="#ebedee"
         id="path1962" />
      <rect
         fill="#ebedee"
         height="4"
         rx="2"
         width="18"
         x="85"
         y="169"
         id="rect1964" />
      <rect
         fill="#d0e9d6"
         height="4"
         rx="2"
         width="30"
         x="115"
         y="169"
         id="rect1966" />
      <rect
         fill="#d0e9d6"
         height="4"
         rx="2"
         width="30"
         x="149"
         y="169"
         id="rect1968" />
      <rect
         fill="#ebedee"
         height="4"
         rx="2"
         width="12"
         x="215"
         y="169"
         id="rect1970" />
      <path
         d="M78.5 180.5h159v19h-159z"
         fill="#fff"
         stroke="#ebedee"
         id="path1972" />
      <rect
         fill="#ebedee"
         height="4"
         rx="2"
         width="18"
         x="85"
         y="188"
         id="rect1974" />
      <rect
         fill="#d0e9d6"
         height="4"
         rx="2"
         width="30"
         x="115"
         y="188"
         id="rect1976" />
      <rect
         fill="#d0e9d6"
         height="4"
         rx="2"
         width="30"
         x="149"
         y="188"
         id="rect1978" />
      <rect
         fill="#ebedee"
         height="4"
         rx="2"
         width="12"
         x="215"
         y="188"
         id="rect1980" />
      <path
         d="M78.5 199.5h159v19h-159z"
         fill="#fff"
         stroke="#ebedee"
         id="path1982" />
      <rect
         fill="#ebedee"
         height="4"
         rx="2"
         width="18"
         x="85"
         y="207"
         id="rect1984" />
      <rect
         fill="#d0e9d6"
         height="4"
         rx="2"
         width="30"
         x="115"
         y="207"
         id="rect1986" />
      <rect
         fill="#d0e9d6"
         height="4"
         rx="2"
         width="30"
         x="149"
         y="207"
         id="rect1988" />
      <rect
         fill="#ebedee"
         height="4"
         rx="2"
         width="12"
         x="215"
         y="207"
         id="rect1990" />
    </g>
    <g
       transform="translate(130 76)"
       id="g2052">
      <path
         d="M0 0h68v210H0z"
         fill="#495060"
         id="path1994" />
      <g
         fill="#7f8490"
         id="g2000">
        <rect
           height="8"
           rx="1"
           width="8"
           x="6"
           y="182"
           id="rect1996" />
        <rect
           height="2"
           rx="1"
           width="35"
           x="18"
           y="185"
           id="rect1998" />
      </g>
      <g
         fill="#7f8490"
         id="g2006">
        <rect
           height="8"
           rx="1"
           width="8"
           x="6"
           y="196"
           id="rect2002" />
        <rect
           height="2"
           rx="1"
           width="26"
           x="18"
           y="199"
           id="rect2004" />
      </g>
      <path
         d="M.5 21.5h67"
         stroke="#5f6778"
         stroke-linecap="square"
         id="path2008" />
      <rect
         fill="#ffc345"
         height="8"
         rx="1"
         width="8"
         x="6"
         y="7"
         id="rect2010" />
      <g
         fill="#7f8490"
         id="g2024">
        <rect
           height="2"
           rx="1"
           width="20"
           x="18"
           y="8"
           id="rect2012" />
        <rect
           height="2"
           rx="1"
           width="16"
           x="18"
           y="12"
           id="rect2014" />
        <rect
           height="8"
           rx="1"
           width="8"
           x="6"
           y="28"
           id="rect2016" />
        <rect
           height="2"
           rx="1"
           width="40"
           x="18"
           y="31"
           id="rect2018" />
        <rect
           height="8"
           rx="1"
           width="8"
           x="6"
           y="42"
           id="rect2020" />
        <rect
           height="2"
           rx="1"
           width="26"
           x="18"
           y="45"
           id="rect2022" />
      </g>
      <rect
         fill="#ffc345"
         height="2"
         rx="1"
         width="8"
         x="54"
         y="45"
         id="rect2026" />
      <g
         fill="#7f8490"
         id="g2032">
        <rect
           height="8"
           rx="1"
           width="8"
           x="6"
           y="56"
           id="rect2028" />
        <rect
           height="2"
           rx="1"
           width="38"
           x="18"
           y="59"
           id="rect2030" />
      </g>
      <g
         fill="#7f8490"
         id="g2038">
        <rect
           height="8"
           rx="1"
           width="8"
           x="6"
           y="98"
           id="rect2034" />
        <rect
           height="2"
           rx="1"
           width="38"
           x="18"
           y="101"
           id="rect2036" />
      </g>
      <g
         fill="#7f8490"
         id="g2044">
        <rect
           height="8"
           rx="1"
           width="8"
           x="6"
           y="84"
           id="rect2040" />
        <rect
           height="2"
           rx="1"
           width="21"
           x="18"
           y="87"
           id="rect2042" />
      </g>
      <g
         fill="#7f8490"
         id="g2050">
        <rect
           height="8"
           rx="1"
           width="8"
           x="6"
           y="70"
           id="rect2046" />
        <rect
           height="2"
           rx="1"
           width="34"
           x="18"
           y="73"
           id="rect2048" />
      </g>
    </g>
    <g
       fill="#ebedee"
       transform="translate(130 56)"
       id="g2062">
      <rect
         height="8"
         rx="2"
         width="8"
         x="78"
         y="27"
         id="rect2054" />
      <rect
         height="8"
         rx="2"
         width="8"
         x="90"
         y="27"
         id="rect2056" />
      <rect
         height="8"
         rx="2"
         width="8"
         x="102"
         y="27"
         id="rect2058" />
      <rect
         height="8"
         rx="2"
         width="30"
         x="278"
         y="27"
         id="rect2060" />
    </g>
    <path
       d="M135 56h310a5 5 0 0 1 5 5v14a1 1 0 0 1-1 1H131a1 1 0 0 1-1-1V61a5 5 0 0 1 5-5z"
       fill="#e6e7e8"
       fill-rule="nonzero"
       id="path2064" />
    <g
       fill="#fff"
       fill-rule="nonzero"
       transform="translate(130 56)"
       id="g2072">
      <circle
         cx="11.714"
         cy="10.286"
         r="2.571"
         id="circle2066" />
      <circle
         cx="22"
         cy="10.286"
         r="2.571"
         id="circle2068" />
      <circle
         cx="32.286"
         cy="10.286"
         r="2.571"
         id="circle2070" />
    </g>
    <path
       d="M198.5 97.5h249"
       stroke="#e4e9eb"
       stroke-linecap="square"
       id="path2074" />
    <g
       fill-rule="nonzero"
       transform="translate(410 18)"
       id="g2080">
      <use
         fill="#000"
         filter="url(#a)"
         xlink:href="#b"
         id="use2076" />
      <use
         fill="#fff"
         xlink:href="#b"
         id="use2078" />
    </g>
    <path
       d="M429 78V68h6v10m6 0V58h6v20m6 0V48h6v30m6 0V38h6v40"
       stroke="#000"
       stroke-linecap="round"
       stroke-linejoin="round"
       stroke-width="2"
       id="path2082" />
    <g
       fill-rule="nonzero"
       transform="translate(410 118)"
       id="g2088">
      <use
         fill="#000"
         filter="url(#c)"
         xlink:href="#d"
         id="use2084" />
      <use
         fill="#fff"
         xlink:href="#d"
         id="use2086" />
    </g>
    <g
       stroke="#000"
       stroke-linecap="round"
       stroke-linejoin="round"
       stroke-width="2"
       id="g2094">
      <path
         d="M463.748 167.112l-5.31-3.352a27.985 27.985 0 0 0-14.937-4.32h-10.787a2 2 0 0 1-2-2v-7.52a2 2 0 0 1 2-2h10.79a27.96 27.96 0 0 0 14.93-4.32l5.307-3.351a1 1 0 0 1 1.534.845l.007 25.172a1 1 0 0 1-1.534.846z"
         id="path2090" />
      <path
         d="M435.034 159.44c.043 3.826.283 6.946.72 9.36.17.94.384 1.845.64 2.715a5.338 5.338 0 0 0 5.12 3.83 2.491 2.491 0 0 0 2.356-3.303c-.461-1.337-.766-2.418-.916-3.242-.257-1.42-.497-4.54-.72-9.36m.726-11.52V158m22.314-8.64a4.32 4.32 0 0 1 0 8.64"
         id="path2092" />
    </g>
    <g
       fill-rule="nonzero"
       transform="translate(410 218)"
       id="g2102">
      <use
         fill="#000"
         filter="url(#e)"
         xlink:href="#f"
         id="use2096" />
      <use
         fill="#fff"
         xlink:href="#f"
         id="use2098" />
      <path
         d="M42.713 29.527a5.13 5.13 0 0 0-.856 1.867c-.073.38-.1.776-.078 1.185.022.386.072.755.151 1.104.073.262.168.525.284.788.344.782.778 1.457 1.303 2.011.554.525 1.23.96 2.01 1.304.263.116.526.21.788.283.35.079.718.13 1.104.151.409.022.805-.005 1.185-.078a5.13 5.13 0 0 0 1.868-.856c.234-.167.447-.347.64-.54.86-.861 1.318-1.969 1.465-3.24.044-.383.072-.779.192-1.14.074-.22.176-.394.302-.52.284-.285.692-.327 1.17-.107.295.136.579.331.81.557l.123.12c.168.17.275.276.303.303l.393.39.125.127c.455.452.908.906 1.36 1.36.98.978 1.959 1.958 2.938 2.938l.966.967a2.953 2.953 0 0 1 .513.686c.425.842.255 1.78-.51 2.545l-.68.682c-1.3 1.3-2.601 2.598-3.9 3.9l-1.099 1.103c-.262.263-.51.545-.733.84a2.932 2.932 0 0 0-.418.751c-.315.91-.086 1.78.57 2.35.206.163.45.3.728.403.398.147.836.197 1.261.253 1.613.21 2.94 1.109 3.552 2.406a3.883 3.883 0 0 1 .379 2.051c-.058 1.144-.563 2.127-1.4 2.944l-.108.108c-.817.837-1.8 1.342-2.943 1.4a3.878 3.878 0 0 1-2.052-.379c-1.297-.611-2.194-1.94-2.405-3.552-.055-.425-.106-.863-.253-1.261a2.609 2.609 0 0 0-.44-.773c-.565-.624-1.402-.841-2.25-.551-.315.12-.567.258-.813.444a8.303 8.303 0 0 0-.84.733l-1.101 1.098c-1.16 1.156-2.315 2.313-3.471 3.47l-.431.43-.656.656c-.791.79-1.729.96-2.57.535a2.597 2.597 0 0 1-.218-.132 2.883 2.883 0 0 1-.469-.381l-.967-.966c-.98-.979-1.96-1.957-2.938-2.938-.454-.452-.908-.905-1.36-1.36l-.127-.125-.383-.386-.31-.31-.12-.122a2.955 2.955 0 0 1-.557-.81c-.22-.479-.178-.886.108-1.17.125-.127.299-.229.519-.302.361-.12.756-.148 1.14-.193 1.271-.146 2.378-.605 3.24-1.465a5.14 5.14 0 0 0 .54-.64 5.13 5.13 0 0 0 .856-1.868c.072-.38.1-.776.077-1.184a6.677 6.677 0 0 0-.15-1.104 5.796 5.796 0 0 0-.284-.789c-.345-.78-.779-1.456-1.303-2.01-.555-.525-1.23-.96-2.01-1.304a5.77 5.77 0 0 0-.789-.283 6.53 6.53 0 0 0-1.104-.151 4.879 4.879 0 0 0-1.184.078 5.13 5.13 0 0 0-1.868.855 5.083 5.083 0 0 0-.64.54c-.86.862-1.319 1.97-1.465 3.24-.044.384-.073.78-.193 1.14-.073.22-.175.395-.302.52-.283.286-.691.328-1.17.107a2.946 2.946 0 0 1-.81-.556l-.122-.12-.303-.303-.393-.39-.126-.127c-.454-.452-.907-.906-1.36-1.36-.98-.978-1.958-1.958-2.937-2.938l-.966-.967a2.88 2.88 0 0 1-.378-.463 2.651 2.651 0 0 1-.135-.223c-.425-.842-.255-1.78.51-2.546l.68-.68c1.3-1.3 2.601-2.6 3.9-3.901l1.099-1.103a8.26 8.26 0 0 0 .733-.84c.186-.247.325-.499.418-.751.315-.91.086-1.78-.57-2.35-.206-.163-.45-.3-.728-.403-.398-.147-.836-.197-1.261-.253-1.613-.21-2.94-1.109-3.552-2.406a3.898 3.898 0 0 1-.379-2.052c.058-1.143.563-2.126 1.4-2.943l.108-.108c.817-.837 1.8-1.342 2.943-1.4a3.878 3.878 0 0 1 2.052.379c1.297.611 2.194 1.94 2.405 3.552.055.425.106.863.253 1.261.11.298.26.557.44.772.565.625 1.402.842 2.25.552.315-.12.567-.258.813-.444.296-.224.577-.471.84-.733l1.101-1.098c1.304-1.3 2.602-2.601 3.902-3.9l.656-.656c.791-.79 1.729-.96 2.57-.536.074.04.146.084.218.133.165.107.32.233.469.38l.967.967c.98.979 1.96 1.957 2.938 2.938.454.452.908.905 1.36 1.36l.127.125.383.386.31.31.12.122c.226.232.421.516.557.81.22.479.178.886-.108 1.17a1.284 1.284 0 0 1-.519.302c-.361.12-.756.148-1.14.192-1.271.147-2.378.605-3.24 1.466a5.014 5.014 0 0 0-.54.64z"
         stroke="#000"
         stroke-linejoin="round"
         stroke-width="2"
         id="path2100" />
    </g>
    <path
       d="M63.64 308.103h4.958v6.94H63.64zm11.897 0h4.957v6.94h-4.957z"
       fill="#373463"
       fill-rule="nonzero"
       id="path2104" />
    <path
       d="M71.45 311.722l3.244 3.1 7.288 1.717c.75.177 1.358.71 1.614 1.414l.371 1.022c.184.507-.212 1.036-.768 1.025l-21.234-.434c-.764-.015-1.357-.65-1.294-1.387l.55-6.571 2.62.841a4.476 4.476 0 0 0 3.562-.357l1.26-.71a2.37 2.37 0 0 1 2.787.34"
       fill="#5bb347"
       id="path2106" />
    <path
       d="M84.338 311.722l3.244 3.1 7.288 1.717c.75.177 1.358.71 1.614 1.414l.371 1.022c.184.507-.212 1.036-.768 1.025l-21.234-.434c-.764-.015-1.357-.65-1.294-1.387l.55-6.571 2.62.841a4.476 4.476 0 0 0 3.562-.357l1.26-.71a2.37 2.37 0 0 1 2.787.34"
       fill="#5bb347"
       id="path2108" />
    <path
       d="M75.537 314.21c3.994.86 6.289 1.468 6.883 1.824.595.357 1.11 1.183 1.544 2.479"
       stroke="#2f7d1e"
       stroke-linecap="round"
       stroke-linejoin="round"
       id="path2110" />
    <path
       d="M91.18 192.168H54.9c-.704 2.314 1.756 4.53 1.528 6.205-.81 5.937 4.182 19.967 4.182 19.967l1.329 7.717c.156 29.034-.066 47.328-.667 54.882a67.742 67.742 0 0 0-.205 5.133c0 .45.028.885.07 1.31.255 8.719-.01 16.551.135 25.678l9.835-.2c0-7.73-.57-13.495 1.178-26.787.295-2.248.593-4.442.883-6.51-.037.461-.312 4.828-.316 6.509-.001.45.02 17.311.703 26.787h10.134c-.314 0-1.369-13.494.38-26.786 1.251-9.51 2.53-18.127 3.232-19.704 1.097-2.454 3.067-23.688 5.128-38.624.822-5.694.573-22.271-.029-27.859-.293-2.716-.875-5.027-1.22-7.718z"
       fill="#485781"
       id="path2112" />
    <path
       d="M73.972 277.31a.38.38 0 0 1-.369-.469c.082-.33 8.096-32.864 9.475-39.004 1.368-6.098.62-31.725.613-31.982a.379.379 0 0 1 .104-.273l3.858-4.09a.378.378 0 1 1 .55.52l-3.75 3.977c.068 2.372.712 26.007-.634 32.014-1.382 6.15-9.398 38.69-9.478 39.018a.381.381 0 0 1-.369.289m-6.208-65.432a.38.38 0 0 0 .288-.131 14.845 14.845 0 0 0 3.451-7.94.377.377 0 1 0-.751-.083 14.07 14.07 0 0 1-3.276 7.527.381.381 0 0 0 .288.627"
       fill="#48458d"
       id="path2114" />
    <path
       d="M54.823 194.095l1.037 4.61h37.03v-3.907c.99-9.06.659-17.226-.993-24.496-2.478-10.905-5.186-12.334-4.711-15.978.475-3.641-8.297-23.573-9.982-25.8-1.688-2.226-8.366-2.63-11.198 0-2.834 2.63-10.53 14.164-11.182 16.592-.654 2.428-2.69 32.924-2.69 32.924s2.105 3.489 2.69 7.651c.497 3.538-.572 7.788 0 8.404z"
       fill="#5bb347"
       id="path2116" />
    <path
       d="M62 199.612l3.646 2.805s4.173 2.01 4.663 3.067c2.386 2.438 3.48 3.797 3.284 4.08-.804 1.152-4.654-1.311-4.966-.93.723 2.362 1.726 5.78 1.529 5.95l-1.675 1.445-1.275-2.288s-.775 1.066-1.2 1.034c-.425-.03-.992-.34-.992-.34s-.966.534-2.016.742c-1.05.208-.443-1.942-1.442-2.176-1-.235-2.675-5.955-2.82-6.78-.147-.824-3.32-7.996-3.32-7.996z"
       fill="#f1bd9a"
       id="path2118"
       style="fill:#916f6f" />
    <path
       d="M68.76 126.321c-3.747.907-16.984 9.623-18.5 12.655-1.517 3.034-10.502 33.72-7.327 38.556 3.175 4.835 12.799 25.934 12.799 25.934l9.029-3.802c-3.89-10.004-6.341-17.478-7.352-22.423-1.01-4.944-1.01-11.34 0-19.187z"
       fill="#5bb347"
       id="path2120" />
    <g
       fill="#f1bd9a"
       id="g2126"
       style="fill:#916f6f">
      <path
         d="M129.322 118.831c.382-.303 5.995-.07 5.995-.07s.55-1.883 1.306-1.956c.41-.04 1.267-.557.769.494-.333.701-.62 1.705-.86 3.01l-1.35 2.224c-.579.858-4.5 2.241-4.5 2.241l-3.506 4.318c-1.495-.833-2.387-1.963-3.895-2.77 3.773-4.792 5.787-7.29 6.04-7.49z"
         id="path2122"
         style="fill:#916f6f" />
      <path
         d="M131.887 120.94l2.669-1.232c-.324.125-.324-.236 0-1.083s2.234-3.238 5.731-7.172l-1.268-.525c-2.144 2.213-3.631 3.396-4.463 3.549-1.287.236-1.776.236-2.184.407-2.22.93-3.706 3.273-4.121 5.2-.046.215 1.166.5 3.636.855z"
         id="path2124"
         style="fill:#916f6f" />
    </g>
    <path
       d="M84.263 142.951c7.136 4.14 23.086 4.768 29.235 4.768s14.252-14.468 16.621-17.137l-5.051-7.272c-5.854 6.059-10.005 10.52-12.454 13.384-4.926-1.117-26.697-9.319-36.022-8.34-7.04-.128-4.484 4.737 7.671 14.597z"
       fill="#5bb347"
       id="path2128" />
    <path
       d="M71.923 126.704c19.039 0 22.824 6.963 21.46 15.84l-2.421 34.988-10.66-15.668z"
       fill="#5bb347"
       id="path2130" />
    <path
       d="M93.005 146.013c-.085-1.385-.733-2.673-1.943-3.864-1.21-1.191-3.08-2.382-5.61-3.571m25.102 4.064c.746-.465 1.29-1.32 1.631-2.566.342-1.245.171-2.373-.512-3.382m-53.925 3.334c2.03.887 2.67 3.559 1.916 8.013-.754 4.455-2.567 12.76-5.44 24.915l10.524 25.009"
       stroke="#319643"
       stroke-linecap="round"
       stroke-linejoin="round"
       id="path2132" />
    <path
       d="M78.73 126.467v-1.465s5.216.965 6.685-.38c.614-.564 1.232-3.077 1.567-7.072.035-.426 1.621-.056 1.621-.491 0-2.435-2.702-4.277-2.412-5.85 1.068-5.764.623-7.324-1.012-9.005-3.633-3.738-18.1-5.131-20.045 1.162-1.945 6.292-.03 9.899 2.962 18.993v4.108c0 4.137 1.478 5.641 5.684 5.641 3.957 0 5.607-1.88 4.95-5.641z"
       fill="#f1bd9a"
       id="path2134"
       style="fill:#916f6f" />
    <path
       d="M71.867 116.306s-4.349-5.106-.88-7.311c1.863-1.183 3.667 1.95 4.94 5.108.733 1.819 1.475.615 2.228-3.614 0 0 2.976-1.25 3.474-4.081 0 0 7.058-.196 8.13-4.72.538-2.274-2.375-6.712-9.987-7.101-7.612-.39-11.017 1.974-13.87 6.158-3.187 4.675-2.899 10.288 2.194 21.613z"
       fill="#564d52"
       id="path2136" />
    <path
       d="M67.542 195.5h22"
       stroke="#319643"
       stroke-linecap="round"
       stroke-linejoin="round"
       id="path2138" />
  </g>
</svg>
