<?xml version="1.0" encoding="UTF-8" standalone="no"?>
<svg
   xmlns:dc="http://purl.org/dc/elements/1.1/"
   xmlns:cc="http://creativecommons.org/ns#"
   xmlns:rdf="http://www.w3.org/1999/02/22-rdf-syntax-ns#"
   xmlns:svg="http://www.w3.org/2000/svg"
   xmlns="http://www.w3.org/2000/svg"
   xmlns:sodipodi="http://sodipodi.sourceforge.net/DTD/sodipodi-0.dtd"
   xmlns:inkscape="http://www.inkscape.org/namespaces/inkscape"
   height="450"
   viewBox="0 0 520 450"
   width="520"
   version="1.1"
   id="svg1803"
   sodipodi:docname="main.svg"
   inkscape:version="0.92.3 (2405546, 2018-03-11)">
  <metadata
     id="metadata1809">
    <rdf:RDF>
      <cc:Work
         rdf:about="">
        <dc:format>image/svg+xml</dc:format>
        <dc:type
           rdf:resource="http://purl.org/dc/dcmitype/StillImage" />
      </cc:Work>
    </rdf:RDF>
  </metadata>
  <defs
     id="defs1807" />
  <sodipodi:namedview
     pagecolor="#ffffff"
     bordercolor="#666666"
     borderopacity="1"
     objecttolerance="10"
     gridtolerance="10"
     guidetolerance="10"
     inkscape:pageopacity="0"
     inkscape:pageshadow="2"
     inkscape:window-width="1920"
     inkscape:window-height="1003"
     id="namedview1805"
     showgrid="false"
     inkscape:zoom="2.4135912"
     inkscape:cx="-28.785857"
     inkscape:cy="336.50948"
     inkscape:window-x="0"
     inkscape:window-y="0"
     inkscape:window-maximized="1"
     inkscape:current-layer="g1619" />
  <mask
     id="a"
     fill="#fff">
    <path
       d="M1.036 1.031h10.19v6.28H1.036z"
       fill-rule="evenodd"
       id="path1481" />
  </mask>
  <mask
     id="b"
     fill="#fff">
    <path
       d="M.456.75h22.762v18.27H.456z"
       fill-rule="evenodd"
       id="path1484" />
  </mask>
  <g
     fill="none"
     fill-rule="evenodd"
     id="g1801">
    <ellipse
       cx="260"
       cy="448.5"
       fill="#eceeef"
       fill-rule="nonzero"
       rx="260"
       ry="1.5"
       transform="matrix(1 0 0 -1 0 897)"
       id="ellipse1487" />
    <g
       stroke="#798396"
       stroke-linecap="round"
       stroke-linejoin="round"
       stroke-width="2"
       id="g1493">
      <path
         d="M287.516 127.853l-4.649 5.164-4.648-5.164"
         id="path1489" />
      <path
         d="M282.867 125.787v-10.33"
         stroke-dasharray="1 6"
         id="path1491" />
    </g>
    <path
       d="M317.01 337.221l-16.88 2.86-21.51-3.645-.187 104.55h4.963l16.525-98.547 1.502 98.547h4.963s5.55-39.349 5.917-42.933c.368-3.586 1.802-14.648 1.802-14.648z"
       fill="#af8162"
       id="path1495" />
    <path
       d="M304.284 229.574c-4.453-1.349-9.35-.869-13.385 1.822-3.338 2.226-6.3 5.108-8.736 8.391-.75 1.012-6.45 9.45-5.45 10.49 6.031 6.284 14.181 10.044 22.559 11.292 7.736 1.33 15.747-.124 23.405-1.217-.771-9.463-4.29-19.317-10.794-26.109a17.606 17.606 0 0 0-7.599-4.669"
       fill="#2f302f"
       id="path1497" />
    <g
       fill="#f1e1d3"
       id="g1505">
      <path
         d="M285.016 287.066l2.7 17.713c-7.09 10.353-10.848 25.989-15.546 77.71h51.393c-1.763-66.72-11.914-77.6-11.914-77.6l4.096-18.028c3.687-3.483 3.892-9.014 3.892-11.472 0-2.459-1.063-10.04-1.063-10.04s-15.326-7.169-19.013-7.169c-3.687 0-17.302 7.17-17.302 7.17l-1.545 9.834c-1.228 7.17 4.302 11.882 4.302 11.882"
         id="path1499" />
      <path
         d="M318.574 265.35c3.858 2.105 7.204 14.361 7.461 18.785.257 4.421-.098 23.68-6.148 24.238-6.049.556-32.17-3.595-32.17-3.595l.577-6.256 25.336-2.356 1.977-21.25z"
         id="path1501" />
      <path
         d="M282.258 265.35c-5.891 3.133-6.978 20.404-6.692 26.309.286 5.904-1.613 15.599 3.326 15.898 4.938.301 28.012-2.015 28.012-2.015l4.76-8.939-22.191-2.122z"
         id="path1503" />
    </g>
    <path
       d="M303.805 276.346a.369.369 0 0 1-.08-.008c-3.987-.887-7.704-3.247-10.2-6.475a.368.368 0 1 1 .582-.45c2.395 3.093 5.958 5.353 9.778 6.203a.369.369 0 0 1-.08.73m11.803 10.433a.37.37 0 0 1-.313-.566c2.522-4.027 2.928-9.243 1.06-13.611a.368.368 0 0 1 .012-.316c.296-.572.573-1.188.85-1.803.282-.629.566-1.256.868-1.841a.37.37 0 0 1 .656.339c-.297.573-.573 1.189-.851 1.804a45.586 45.586 0 0 1-.788 1.686c1.883 4.555 1.436 9.954-1.181 14.135a.369.369 0 0 1-.313.173m-30.733 0a.369.369 0 0 1-.313-.173c-2.618-4.18-3.065-9.58-1.181-14.135-.272-.54-.53-1.113-.788-1.686-.278-.615-.555-1.23-.851-1.804a.37.37 0 1 1 .656-.34c.302.586.584 1.213.868 1.842.277.615.554 1.23.85 1.803a.368.368 0 0 1 .012.316c-1.868 4.368-1.462 9.584 1.06 13.611a.37.37 0 0 1-.313.566"
       fill="#dbb299"
       id="path1507" />
    <path
       d="M296.267 252.855v9.012s4.565 7.716 8.76.18l-.368-9.192z"
       fill="#af8162"
       id="path1509" />
    <path
       d="M298.106 231.489c-7.773 1.02-9.017 10.001-7.148 17.099 1.394 5.295 4.566 10.643 9.553 10.515 4.987-.129 7.993-6.946 8.886-11.13 1.436-6.728 1.17-18.118-11.291-16.484"
       fill="#af8162"
       id="path1511" />
    <path
       d="M291.884 246.624s-.3-2.976-2.7-1.983c-2.4.992.528 7.697 3.2 6.927 2.672-.77-.5-4.944-.5-4.944m15.966-.15s.087-2.989 2.552-2.171c2.465.817.026 7.715-2.695 7.139-2.721-.577.144-4.968.144-4.968"
       fill="#fe8967"
       id="path1513" />
    <path
       d="M308.662 233.711c-.615-.272-1.276-.38-1.95-.409-.175-.495-.466-.888-.92-1.134-2.713-1.472-9.151-1.246-11.975 0s-6.103 6.442-6.845 9.437c-.788 3.186.001 6.526.79 9.712.226.917.528 1.935 1.358 2.387 3.024 1.65 8.073-3.327 9.895-5.209 2.816-2.905 4.958-6.471 6.13-10.346-1.001 3.312-.052 15.74 5.428 15.518.568-.024.914-.618 1.15-1.135.877-1.92 1.77-3.905 1.841-6.016.07-2.11-2.972-11.948-4.902-12.805"
       fill="#2f302f"
       id="path1515" />
    <path
       d="M300.545 259.47a6.67 6.67 0 0 1-3.378-.903.37.37 0 1 1 .376-.636c1.905 1.125 4.52 1.038 6.353-.209a.37.37 0 0 1 .416.61 6.712 6.712 0 0 1-3.767 1.138"
       fill="#815d45"
       id="path1517" />
    <path
       d="M11.226 1.031l-1.543 6.28H1.036l4.323-3.14.906-3.14z"
       fill="#f1e1d3"
       mask="url(#a)"
       transform="translate(272.17 439.955)"
       id="path1519" />
    <path
       d="M277.479 440.043h6.871v1.835c0 3.358-.287 5.037-.86 5.037h-11.782c-1.637 0-1.525-.05-1.525-1.936 0-1.258 1.86-2.292 5.579-3.1z"
       fill="#f1e1d3"
       id="path1521" />
    <path
       d="M276.928 442.574c1.3.04 2.372.168 3.215.384s1.759.544 2.748.984"
       stroke="#e2c1ac"
       stroke-linecap="square"
       id="path1523" />
    <path
       d="M307.183 440.043h-6.872v1.835c0 3.358.287 5.037.86 5.037h11.782c1.637 0 1.831-.027 1.831-1.914 0-1.258-1.961-2.299-5.884-3.123z"
       fill="#f1e1d3"
       id="path1525" />
    <path
       d="M307.733 442.574c-1.3.04-2.372.168-3.215.384s-1.759.544-2.748.984"
       stroke="#e2c1ac"
       stroke-linecap="square"
       id="path1527" />
    <path
       d="M303.425 295.815s2.409 5.062 2.505 4.773c.096-.29 5.734-3.985 5.734-3.985s2.521-1.98 1.504-2.964c-1.018-.983.676-2.799.241-3.474-.434-.675-.69-2.131-.69-2.131l-1.055 2.806-3.21.386s-.015-2.813-.69-3.192c-.677-.378-1.545 5.026-1.545 5.026z"
       fill="#af8162"
       id="path1529" />
    <path
       d="M306.753 302.28l-20.698 4.6"
       stroke="#e2c1ac"
       stroke-linecap="square"
       stroke-width=".8"
       id="path1531" />
    <g
       fill="#373463"
       id="g1537">
      <path
         d="M167.03 365.285l4.978-24.086 3.154.06 2.117 24.026h19.427c.296-10.662.342-30.858-.036-40.8l-46.07-1.231c-.474 7.948-.713 29.868-1.555 42.031z"
         id="path1533" />
      <path
         d="M149.045 365.285c-1.835 34.009-3.56 74.968-3.56 74.968l7.3-.157 14.244-74.81-9.944-1.58zm33.307-7.895l-5.072 7.895 5.712 77.788 7.416-.048s5.404-38.339 6.299-77.74z"
         id="path1535" />
    </g>
    <path
       d="M144.823 438.846h8.104v2.165c0 3.96-.338 5.94-1.014 5.94h-13.896c-1.93 0-1.799-.058-1.799-2.283 0-1.484 2.193-2.703 6.58-3.657z"
       fill="#fc5854"
       id="path1539" />
    <path
       d="M144.173 441.832c1.534.047 2.798.198 3.792.453.994.254 2.075.64 3.241 1.16"
       stroke="#e54547"
       stroke-linecap="square"
       id="path1541" />
    <path
       d="M190.58 440.009h-8.104v2.165c0 3.96.337 5.94 1.013 5.94h13.896c1.93 0 1.8-.058 1.8-2.284 0-1.483-2.194-2.702-6.58-3.656z"
       fill="#fc5854"
       id="path1543" />
    <path
       d="M191.23 442.995c-1.535.047-2.799.198-3.793.452-.994.254-2.074.641-3.24 1.16"
       stroke="#e54547"
       stroke-linecap="square"
       id="path1545" />
    <path
       d="M173.745 338.348a.396.396 0 0 1-.381-.293l-2.674-9.99a.395.395 0 0 1 .764-.204l2.673 9.991a.393.393 0 0 1-.382.496"
       fill="#48458d"
       id="path1547" />
    <path
       d="M197.482 269.578l-3.158 57.122-43.723-3.446-5.868 3.747c-2.417-13.99-4.139-30.586-1.838-45.06.732-4.6 2.976-15.567 3.893-20.169.494-2.484 20.612-13.23 24.274-13.016 3.661.216 5.345-.293 11.007 1.003 6.392 1.462 17.606 7.682 19.973 10.564 2.369 2.88 6.063 41.146 5.257 44.804-1.967 8.92-6.945 24.636-6.945 24.636l-6.03-3.063"
       fill="#fc5854"
       id="path1549" />
    <path
       d="M158.878 310.064a.395.395 0 0 1-.186-.744c7.489-4.005 14.237-9.742 19.514-16.588a.394.394 0 1 1 .626.482c-5.344 6.935-12.181 12.745-19.768 16.805a.414.414 0 0 1-.186.045m13.282 5.154a.394.394 0 0 1-.311-.637c5.09-6.536 8.727-12.04 11.13-19.276a.394.394 0 1 1 .75.249c-2.44 7.343-6.116 12.91-11.257 19.512a.393.393 0 0 1-.311.152m-20.291 4.752c-.01 0-.019 0-.029-.002a.394.394 0 0 1-.365-.423c.526-7.043 1.162-13.78 1.775-20.292.46-4.88.935-9.927 1.372-15.155.527-6.305.63-18.302-2.322-23.28a.394.394 0 1 1 .678-.402c3.054 5.148 2.965 17.35 2.43 23.748-.436 5.231-.911 10.28-1.372 15.163-.612 6.51-1.248 13.242-1.773 20.276a.395.395 0 0 1-.393.366"
       fill="#e54547"
       id="path1551" />
    <path
       d="M167.782 240.358v9.216s7.448 7.893 14.287.185l-.598-9.4z"
       fill="#f1bd9a"
       id="path1553"
       style="fill:#916f6f" />
    <path
       d="M186.002 233.897c-.28-.125.084-1.417-.142-1.443 1.055-6.72-.01-13.844-11.017-13.517-6.566.196-8.518 6.218-8.94 12.515-.36-.188-.842-.244-1.49-.048-2.269.68-.694 6.398 1.656 7.275.869 5.756 3.912 9.443 8.264 9.768 4.027.303 7.784-4.052 9.68-8.772 2.451-.544 4.768-6.034 2.602-7.004"
       fill="#f1bd9a"
       id="path1555"
       style="fill:#916f6f" />
    <path
       d="M174.858 248.863a7.17 7.17 0 0 1-.553-.021c-2.292-.172-4.307-1.25-5.825-3.116a.395.395 0 0 1 .612-.5c1.379 1.695 3.2 2.673 5.271 2.828 2.162.16 4.122-.698 5.828-2.555a.395.395 0 0 1 .58.534c-1.705 1.86-3.74 2.83-5.913 2.83"
       fill="#e1a67e"
       id="path1557"
       style="fill:#6c5353" />
    <path
       d="M144.733 327s5.99 11.678 8.064 6.356c2.075-5.324-2.196-10.102-2.196-10.102z"
       fill="#f1bd9a"
       id="path1559"
       style="fill:#916f6f" />
    <path
       d="M1.994 15.595l1.399 2.247h1.484v-3.855S6.75 12.09 6.945 9.93l11.215.801s-.358 2.764.53 3.85v4.44h1.382l1.266-1.196s2.72-9.857 1.616-12.325-3.376-1.58-3.376-1.58-3.691-4.341-8.854-2.862C5.564 2.537 1.42 5.697.63 7.867c-.789 2.172 1.365 7.728 1.365 7.728"
       fill="#2f302f"
       mask="url(#b)"
       transform="translate(163.909 215.857)"
       id="path1561"
       style="fill:#6c5353" />
    <path
       d="M194.323 326.7s-5.853 6.55-2.953 10.597c2.901 4.047 8.984-7.534 8.984-7.534s-5.218-2.999-6.03-3.063"
       fill="#f1bd9a"
       id="path1563"
       style="fill:#916f6f" />
    <path
       d="M194.424 325.916a.394.394 0 0 1-.117-.771c.031-.013.933-.345 1.178-2.026.072-.485-.333-1.354-.762-2.273-1.09-2.34-2.738-5.876.573-9.017 2.666-2.529 1.91-5.696 1.244-8.492-.397-1.663-.74-3.099-.242-4.13.685-1.422.773-14.575.839-24.178.052-7.773.095-12.585.302-13.517a.395.395 0 1 1 .77.17c-.199.899-.24 6.948-.283 13.352-.088 12.994-.211 23.05-.917 24.514-.375.78-.063 2.09.3 3.607.68 2.853 1.527 6.407-1.47 9.249-2.898 2.747-1.513 5.72-.4 8.109.522 1.118.933 2.003.829 2.719-.322 2.203-1.668 2.649-1.726 2.666a.423.423 0 0 1-.118.018"
       fill="#e54547"
       id="path1565" />
    <path
       d="M155.1 337.325a.395.395 0 0 1-.307-.643 7.246 7.246 0 0 0 1.536-5.31 7.255 7.255 0 0 0-2.73-4.807.395.395 0 1 1 .48-.626 7.942 7.942 0 0 1 3.032 5.34 7.936 7.936 0 0 1-1.704 5.898.392.392 0 0 1-.308.148m33.523 5.773a.396.396 0 0 1-.086-.78 10.54 10.54 0 0 0 5.342-3.061.396.396 0 0 1 .577.54 11.347 11.347 0 0 1-5.747 3.292.386.386 0 0 1-.086.01"
       fill="#48458d"
       id="path1567" />
    <path
       d="M41.8 292.468c3.042 3.138 4.972 4.089 9.245 3.819 10.777-.68 11.454-1.236 14.521-3.82 3.067-2.583 6.848-20.36 5.274-21.773-2.331-2.091-2.292-5.678-2.205-8.808a111.483 111.483 0 0 0-.889-17.473c-.58-4.467-1.55-9.146-4.57-12.488-3.297-3.647-8.738-5.032-13.505-3.83s-8.772 4.787-10.926 9.206c-2.156 4.42-2.543 9.587-1.55 14.401.921 4.46 2.96 9.168 1.169 13.355-2.556 5.98.396 24.272 3.437 27.41z"
       fill="#2f302f"
       id="path1569" />
    <path
       d="M28.652 370.08l-.056 11.525s-4.713 16.073-5.315 19.744c-.488 2.974-1.269 29.563-1.548 39.557-.065 2.343 4.979 1.246 4.979 1.246l.306-1.247 24.881-101.312.555 101.32s5.184 2.453 5.746-.007c2.32-10.178 8.306-36.601 8.609-39.557.376-3.671-1.317-19.744-1.317-19.744l2.59-11.528-11.253-38.804z"
       fill="#f1bd9a"
       id="path1571"
       style="fill:#916f6f" />
    <path
       d="M21.452 440.257h7.018v1.875c0 3.43-.292 5.145-.878 5.145H15.558c-1.672 0-1.558-.05-1.558-1.978 0-1.285 1.9-2.34 5.698-3.167z"
       fill="#fec424"
       id="path1573" />
    <path
       d="M20.89 442.843c1.328.041 2.422.172 3.283.392.861.22 1.797.555 2.807 1.005"
       stroke="#dca91b"
       stroke-linecap="square"
       id="path1575" />
    <path
       d="M59.233 440.257h-7.018v1.875c0 3.43.292 5.145.878 5.145h12.034c1.672 0 1.558-.05 1.558-1.978 0-1.285-1.9-2.34-5.698-3.167z"
       fill="#fec424"
       id="path1577" />
    <path
       d="M59.796 442.843c-1.329.041-2.423.172-3.284.392-.861.22-1.797.555-2.807 1.005"
       stroke="#dca91b"
       stroke-linecap="square"
       id="path1579" />
    <path
       d="M72.738 266.294c4.122 2.539 11.534 23.341 12.325 25.713.79 2.372-11.464 26.635-11.464 26.635l-3.065-5.322 5.534-20.373-5.367-13.721zm-39.726-.855c-4.122 2.538-11.534 23.34-12.325 25.713-.79 2.372 11.464 26.634 11.464 26.634l3.064-5.321-5.533-20.373 5.366-13.722z"
       fill="#f1bd9a"
       id="path1581"
       style="fill:#916f6f" />
    <path
       d="M28.756 348.552l-.104 21.526h39.432l5.124-22.796c3.727-25.782-8.652-41.339-8.652-41.339l4.197-18.46c3.776-3.568 3.984-9.23 3.984-11.749v-9.44s-16.782-8.182-20.558-8.182-19.3 7.343-19.3 7.343v10.07c-1.26 7.342 4.405 12.167 4.405 12.167l3.356 18.251s-15.607 20.426-11.884 42.609"
       fill="#fec424"
       id="path1583" />
    <path
       d="M48.805 251.077v9.229s4.676 7.903 8.97.185l-.376-9.414z"
       fill="#f1bd9a"
       id="path1585"
       style="fill:#916f6f" />
    <path
       d="M50.688 229.197c-7.96 1.043-9.233 10.242-7.32 17.51 1.427 5.423 4.677 10.9 9.783 10.768 5.108-.132 8.187-7.113 9.1-11.395 1.47-6.892 1.198-18.556-11.563-16.883"
       fill="#f1bd9a"
       id="path1587"
       style="fill:#916f6f" />
    <path
       d="M44.317 244.696s-.308-3.047-2.766-2.03c-2.458 1.016.542 7.882 3.277 7.094 2.737-.79-.51-5.064-.51-5.064"
       fill="#fe8967"
       id="path1589" />
    <path
       d="M60.668 244.543s.088-3.06 2.613-2.223c2.523.837.026 7.9-2.76 7.31-2.786-.59.147-5.087.147-5.087"
       fill="#f1bd9a"
       id="path1591"
       style="fill:#916f6f" />
    <path
       d="M53.187 257.869a6.846 6.846 0 0 1-3.469-.928.396.396 0 0 1 .402-.68c1.95 1.149 4.617 1.059 6.487-.213a.396.396 0 0 1 .445.653 6.878 6.878 0 0 1-3.865 1.168"
       fill="#e1a67e"
       id="path1593"
       style="fill:#6c5d53" />
    <path
       d="M57.149 234.227c.105 4.837-.806 9.8-3.346 13.918-2.54 4.116-6.858 7.281-11.675 7.726-1.708-4.18-2.982-8.77-2.5-13.26.48-4.489 2.582-8.912 6.2-11.612 3.62-2.7 8.812-3.402 12.752-1.199 3.3 1.844 5.357 5.405 6.24 9.08s.802 5.709.653 9.485c-5.518-2.93-9.095-7.937-8.324-14.138"
       fill="#2f302f"
       id="path1595" />
    <path
       d="M70.535 313.32s-1.252-2.979-1.647-2.914c-.395.067-3.559 3.624-3.756 4.086-.198.46.462 1.383.462 1.383l1.252-.658.527 1.843h1.238s-1.305.924-1.238 1.582c.065.659.725.857.725.857l1.95-1.187 1.436 2.636 2.115-2.306zm-36.45 0s1.252-2.979 1.647-2.914c.395.067 3.558 3.624 3.755 4.086.198.46-.46 1.383-.46 1.383l-1.253-.658-.527 1.843h-1.239s1.305.924 1.239 1.582c-.065.659-.724.857-.724.857l-1.95-1.187-1.438 2.636-2.115-2.306z"
       fill="#f1bd9a"
       id="path1597"
       style="fill:#916f6f" />
    <g
       stroke-width="2"
       id="g1621">
      <g
         stroke="#64676d"
         stroke-linecap="round"
         stroke-linejoin="round"
         id="g1603">
        <path
           d="M139.53 79.82l-6.197 6.197 6.197 6.198"
           id="path1599" />
        <path
           d="M140.293 86.017h21.028"
           stroke-dasharray="3 5"
           id="path1601" />
      </g>
      <g
         stroke="#64676d"
         stroke-linecap="round"
         stroke-linejoin="round"
         id="g1613">
        <path
           d="M58.84 192.673l-6.198 6.198-6.198-6.198m136.396 0l-6.198 6.198-6.198-6.198m135.396 0l-6.198 6.198-6.198-6.198"
           id="path1605" />
        <g
           stroke-dasharray="3 5"
           id="g1611">
          <path
             d="M96.933 112.673l-.16 52.681H299.3v26.124"
             id="path1607" />
          <path
             d="M52.515 193.298v-27.944H98.84m77.73 27.944v-27.944"
             id="path1609" />
        </g>
      </g>
      <g
         transform="translate(78.856 67.424)"
         id="g1619">
        <circle
           cx="18.593"
           cy="18.593"
           fill="#59b769"
           r="19.593"
           stroke="#59b769"
           id="circle1615" />
        <text
           xml:space="preserve"
           style="font-style:normal;font-variant:normal;font-weight:normal;font-stretch:normal;font-size:20.1462574px;line-height:1.25;font-family:'Abyssinica SIL';-inkscape-font-specification:'Abyssinica SIL, Normal';font-variant-ligatures:normal;font-variant-caps:normal;font-variant-numeric:normal;font-feature-settings:normal;text-align:start;letter-spacing:0px;word-spacing:0px;writing-mode:lr-tb;text-anchor:start;fill:#000000;fill-opacity:1;stroke:none;stroke-width:1.67885482"
           x="7.7984109"
           y="22.944447"
           id="text8588"
           transform="scale(0.93703737,1.0671933)"><tspan
             sodipodi:role="line"
             id="tspan8586"
             x="7.7984109"
             y="22.944447"
             style="font-style:normal;font-variant:normal;font-weight:bold;font-stretch:normal;font-size:17.90778542px;font-family:'Noto Sans Ethiopic';-inkscape-font-specification:'Noto Sans Ethiopic Bold';fill:#ffffff;stroke-width:1.67885482">ብር</tspan></text>
      </g>
    </g>
    <path
       d="M466.477 439.648h8.185v2.187c0 4-.341 6-1.024 6h-14.035c-1.95 0-1.817-.059-1.817-2.307 0-1.498 2.215-2.73 6.645-3.693z"
       fill="#2f302f"
       id="path1623" />
    <path
       d="M465.82 441.294c1.55.048 2.826.2 3.83.457s2.096.648 3.274 1.172"
       stroke="#4b4891"
       stroke-linecap="square"
       id="path1625" />
    <path
       d="M503.935 439.648h-8.186v2.187c0 4 .342 6 1.024 6h14.036c1.95 0 2.181-.032 2.181-2.28 0-1.499-2.336-2.739-7.01-3.72z"
       fill="#2f302f"
       id="path1627" />
    <path
       d="M504.591 441.294c-1.55.048-2.826.2-3.83.457s-2.095.648-3.274 1.172"
       stroke="#4b4891"
       stroke-linecap="square"
       id="path1629" />
    <path
       d="M477.017 439.65l6.093-101.028 8.773 101.028h14.138c.315-11.354 2-113.183 1.599-123.77l-49.056-1.31c-.505 8.462 4.616 112.129 3.72 125.08z"
       fill="#373463"
       id="path1631" />
    <path
       d="M460.593 318.898l42.515-2.852c-.188 1.526-.188 2.65 0 3.37.124.474 3.362 2.97 4.667 7 .453 1.402.453 3.908 0 7.518H460.5c-1.572-3.715-2.232-6.48-1.982-8.296.25-1.816.942-4.063 2.074-6.74z"
       fill="#373463"
       id="path1633" />
    <path
       d="M447.113 266.531c1.037-1.9 2.592-3.542 4.666-4.925 11.81-7.873 21.203-11.925 25.405-11.925 7.115 0 18.406 4.925 22.813 7 4.407 2.073 6.15 4.789 5.963 5.962-1.704 10.703-4.516 19.677-4.666 25.405-.251 9.534 3.888 27.48 3.37 27.998s-9.592 3.889-23.073 4.926c-13.48 1.037-22.035-.778-23.59-2.333-.948-.948-4.148-10.11-3.37-17.629.453-4.381.673-17.204 0-22.813-.383-3.189-2.89-7.078-7.518-11.666z"
       fill="#59bcf9"
       id="path1635" />
    <path
       d="M505.182 260.569c.547.897.893 1.589 1.037 2.074.216.728 12.851 27.59 12.073 33.034-.777 5.444-8.455 33.432-9.221 32.813-.856-.692-2.93-3.803-6.222-9.333-.346-9.333 0-15.814 1.037-19.443-.346-1.383-1.296-3.456-2.852-6.222-.37-7.48-.37-13.097 0-16.85.37-3.754 1.753-9.112 4.148-16.073z"
       fill="#59bcf9"
       id="path1637" />
    <g
       fill="#f1bd9a"
       id="g1643"
       style="fill:#916f6f">
      <path
         d="M469.407 240.09h15.554v13.998c-2.03 2.938-3.846 4.407-5.444 4.407s-4.968-2.765-10.11-8.296zm-1.555-1.556c1.145 0 2.074-1.625 2.074-3.63s-1.966-3.63-3.111-3.63-1.037 1.626-1.037 3.63.928 3.63 2.074 3.63zm18.665 0c1.145 0 2.074-1.625 2.074-3.63s.108-3.63-1.037-3.63c-1.146 0-3.111 1.626-3.111 3.63s.929 3.63 2.074 3.63z"
         id="path1639"
         style="fill:#916f6f" />
      <path
         d="M477.184 248.125c.397 0 1.82.093 2.593-.259 2.732-1.245 6.221-4.795 6.221-8.814 0-.514.078-13.248 0-13.74-.701-4.435-4.1-4.925-8.612-4.925-4.56 0-8.373-.359-9.016 4.148-.063.446.519 13.534.519 13.999 0 5.154 6.495 9.591 8.295 9.591z"
         id="path1641"
         style="fill:#916f6f" />
    </g>
    <path
       d="M477.408 246.581c-.185 0-.372-.006-.559-.02-2.315-.174-4.35-1.264-5.883-3.148a.4.4 0 0 1 .618-.504c1.393 1.711 3.233 2.699 5.324 2.855 2.184.162 4.164-.705 5.887-2.58a.399.399 0 0 1 .586.539c-1.723 1.878-3.777 2.858-5.973 2.858"
       fill="#e1a67e"
       id="path1645"
       style="fill:#6c5353" />
    <path
       d="M476.925 255.643h6.481c.486.492.658.924.519 1.297-.21.559-2.074 2.592-2.074 2.851s2.692 19.173 3.629 28.776c.625 6.402 1.143 14.525 1.555 24.368l-6.221 5.185-6.222-5.185c1.089-11.179 1.867-19.864 2.333-26.053.7-9.285 1.037-25.535 1.037-25.795 0-.172-.778-.95-2.333-2.333z"
       fill="#2f302f"
       id="path1647" />
    <path
       d="M469.407 247.348c.173 1.382 1.426 3.024 3.76 4.925 2.332 1.901 4.104 3.025 5.314 3.37l-6.222 6.222c-2.54-3.161-4.01-5.754-4.407-7.777-.398-2.023.12-4.27 1.555-6.74zm15.813 1.037c-.518 1.728-1.123 3.11-1.814 4.148s-1.728 2.073-3.11 3.11l6.48 4.407c.346-1.9.519-3.542.519-4.925s-.692-3.63-2.074-6.74z"
       fill="#fff"
       id="path1649" />
    <path
       d="M454.68 296.593l25.086-25.087a3 3 0 0 1 4.243 0l17.754 17.754a3 3 0 0 1 0 4.243l-25.087 25.087a3 3 0 0 1-4.242 0l-17.755-17.755a3 3 0 0 1 0-4.242z"
       fill="#373463"
       id="path1651" />
    <path
       d="M456.931 298.007l24.25-24.25a1 1 0 0 1 1.414 0l16.916 16.917a1 1 0 0 1 0 1.415l-24.249 24.249a1 1 0 0 1-1.414 0l-16.917-16.917a1 1 0 0 1 0-1.414z"
       fill="#fff"
       id="path1653" />
    <path
       d="M483.406 295.566v-13.48a6.74 6.74 0 1 0 0 13.48z"
       fill="#fc5854"
       id="path1655" />
    <path
       d="M484.961 297.122v-6.74h6.74a6.74 6.74 0 0 1-6.74 6.74z"
       fill="#59bcf9"
       id="path1657" />
    <path
       d="M483.406 288.826s4.926-4.148 5.132-4.37a6.714 6.714 0 0 1 1.608 4.37z"
       fill="#373463"
       id="path1659" />
    <path
       d="M483.406 288.826v-6.74c2.07 0 3.921.932 5.157 2.4l-5.157 4.34z"
       fill="#fec424"
       id="path1661" />
    <path
       d="M461.55 299.146l5.5-5.5 1.833 1.834-5.499 5.499z"
       fill="#fc5854"
       id="path1663" />
    <path
       d="M465.217 302.812l8.066-8.066 1.833 1.833-8.066 8.066z"
       fill="#fec424"
       id="path1665" />
    <path
       d="M468.883 306.478l4.4-4.4 1.833 1.834-4.4 4.4z"
       fill="#2e5a6c"
       id="path1667" />
    <path
       d="M472.55 310.144l6.599-6.599 1.833 1.833-6.6 6.6z"
       fill="#59bcf9"
       id="path1669" />
    <path
       d="M475.11 301.788c3.517-1.839 6.023-2.962 7.518-3.37 2.852-.778 4.667.26 5.963.518 1.22.244 2.851 0 2.851 1.037 0 .577-.427.908-1.296 1.037-.805.12-2.01.036-3.11.519-.381.167.184 1.074-.26 1.296-.303.152 2.704.196 4.666 0 .693-.07 1.353-.519 1.556-.519.679 0 1.009 1.087.26 2.074-.235.31-1.033.63-1.297 1.025-.503.751-.81 2.378-1.296 2.864-.656.656-2.017 1.009-2.852 1.815-1.145 1.105-1.901 2.592-3.959 2.592-2.373 0-5.287-1.037-8.744-3.11-.69-1.304-1.037-2.428-1.037-3.371s.346-2.412 1.037-4.407z"
       fill="#f1bd9a"
       id="path1671"
       style="fill:#916f6f" />
    <g
       fill="#373463"
       transform="rotate(30 -303.52 1062.964)"
       id="g1677">
      <path
         d="M1.112 1.555c.483 0 .895.352.97.83.372 2.345.557 4.447.557 6.305-.185.219-2.592 1.515-2.527.582 0-1.883.045-4.177.137-6.882a.863.863 0 0 1 .863-.835z"
         id="path1673" />
      <rect
         height="2.592"
         rx=".556"
         width="1.112"
         x=".556"
         id="rect1675" />
    </g>
    <path
       d="M455.667 269.902c-1.296-2.593-4.92-6.74-8.036-4.408-3.115 2.334-9.438 38.175-7.259 42.775 2.334 4.925 7.26 5.444 14.777 4.925 3.258-.224 5.217 1.35 9.592 1.037 1.521-.108 3.303-1.186 5.962-2.592.828-.438 2.47-.956 4.926-1.555-.864-.865-1.296-2.16-1.296-3.889s.432-3.63 1.296-5.703c-5.358 1.382-10.37 1.814-15.036 1.296s-7-1.383-7-2.592c3.254-7.605 4.81-13.654 4.667-18.147-.215-6.74-1.296-8.555-2.593-11.147z"
       fill="#59bcf9"
       id="path1679" />
    <path
       d="M476.925 215.202c7.259.26 8.243 2.271 8.814 4.148.277.91 2.593-.778 3.111 2.333.256 1.537-.11 6.182-1.555 9.073-.151.302-.41 2.03-.778 5.185h-1.037c.061-.935-.025-2.059-.26-3.37-.35-1.967-1.295-2.592-1.036-3.888.259-1.297.518-2.593-.519-3.37-.291-.22-3.114-.95-6.57-1.038-3.613-.09-7.865.478-8.206 1.037-.982 1.61 0 1.556 0 3.37 0 .968-.519 2.332-.519 4.148 0 1.211.173 2.421.519 3.63h-1.037c-.329-1.37-.588-2.235-.778-2.593-.681-1.283-1.037-1.555-1.555-2.592s-1.482-6.648 1.037-11.925c1.038-2.176 3.11-4.407 10.37-4.148z"
       fill="#2f302f"
       id="path1681" />
    <g
       stroke-width="2"
       id="g1705">
      <g
         stroke="#64676d"
         stroke-linecap="round"
         stroke-linejoin="round"
         id="g1687">
        <path
           d="M482.747 191.703l-6.198 6.886-6.198-6.886"
           id="path1683" />
        <path
           d="M476.5 115.5v73"
           stroke-dasharray="3 5"
           id="path1685" />
      </g>
      <g
         stroke="#64676d"
         stroke-linecap="round"
         stroke-linejoin="round"
         id="g1693">
        <path
           d="M437.567 79.82l6.198 6.197-6.198 6.198"
           id="path1689" />
        <path
           d="M436.804 86.017h-21.028"
           stroke-dasharray="3 5"
           id="path1691" />
      </g>
      <circle
         cx="476.549"
         cy="86.017"
         fill="#59bcf9"
         r="19.593"
         stroke="#59bcf9"
         id="circle1695" />
      <g
         stroke="#fff"
         id="g1703">
        <path
           d="M469.318 82.402a2.582 2.582 0 0 0 2.583 2.582h.028a2.582 2.582 0 1 0 0-5.164h-.028a2.582 2.582 0 0 0-2.583 2.582z"
           stroke-linecap="square"
           id="path1697" />
        <path
           d="M470.351 93.248l12.396-13.428"
           stroke-linecap="round"
           stroke-linejoin="round"
           id="path1699" />
        <path
           d="M478.615 90.666a2.582 2.582 0 0 0 2.582 2.582h.029a2.582 2.582 0 1 0 0-5.165h-.029a2.582 2.582 0 0 0-2.582 2.583z"
           stroke-linecap="square"
           id="path1701" />
      </g>
    </g>
    <path
       d="M396.175.78H180.922a5.483 5.483 0 0 0-3.89 1.612 5.483 5.483 0 0 0-1.61 3.889v148.445h226.253V6.281a5.483 5.483 0 0 0-1.61-3.89 5.483 5.483 0 0 0-3.89-1.61z"
       fill="#fff"
       stroke="#e6e7e8"
       id="path1707" />
    <path
       d="M174.88 15.775h25.096v2.953h-25.095z"
       fill="#e44f4b"
       id="path1709" />
    <path
       d="M200.05 15.775h25.095v2.953H200.05z"
       fill="#bec3cc"
       id="path1711" />
    <path
       d="M225.22 15.775h25.095v2.953h-25.096z"
       fill="#e44f4b"
       id="path1713" />
    <path
       d="M250.389 15.775h25.095v2.953H250.39z"
       fill="#bec3cc"
       id="path1715" />
    <path
       d="M275.632 15.775h25.095v2.953h-25.095z"
       fill="#e44f4b"
       id="path1717" />
    <path
       d="M300.727 15.775h25.096v2.953h-25.096z"
       fill="#bec3cc"
       id="path1719" />
    <path
       d="M325.823 15.775h25.095v2.953h-25.095z"
       fill="#e44f4b"
       id="path1721" />
    <path
       d="M350.918 15.775h25.096v2.953h-25.096z"
       fill="#bec3cc"
       id="path1723" />
    <path
       d="M376.014 15.775h26.252v2.953h-26.252zm-87.496 41.386c8.99 0 16.28-7.4 16.28-16.527h-32.56c0 9.128 7.289 16.527 16.28 16.527z"
       fill="#e44f4b"
       id="path1725" />
    <path
       d="M275.938 18.435H250.78l-9.62 22.199h31.08z"
       fill="#f9f9f9"
       id="path1727" />
    <path
       d="M250.78 18.435h-25.16l-15.54 22.199h31.08z"
       fill="#f99e9c"
       id="path1729" />
    <path
       d="M225.62 18.435h-25.159l-17.76 22.199h27.38z"
       fill="#f9f9f9"
       id="path1731" />
    <path
       d="M200.461 18.435h-25.159l-20.72 22.199h28.12z"
       fill="#f99e9c"
       id="path1733" />
    <path
       d="M168.642 57.161c7.765 0 14.06-7.4 14.06-16.527h-28.12c0 9.128 6.295 16.527 14.06 16.527z"
       fill="#e44f4b"
       id="path1735" />
    <path
       d="M196.391 57.161c7.56 0 13.69-7.4 13.69-16.527H182.7c0 9.128 6.13 16.527 13.69 16.527z"
       fill="#dbdcde"
       id="path1737" />
    <path
       d="M225.62 57.161c8.582 0 15.54-7.4 15.54-16.527h-31.08c0 9.128 6.958 16.527 15.54 16.527z"
       fill="#e44f4b"
       id="path1739" />
    <path
       d="M256.699 57.161c8.582 0 15.54-7.4 15.54-16.527h-31.08c0 9.128 6.958 16.527 15.54 16.527z"
       fill="#dbdcde"
       id="path1741" />
    <path
       d="M301.097 18.435h25.16l9.619 22.199h-31.079z"
       fill="#f9f9f9"
       id="path1743" />
    <path
       d="M326.256 18.435h25.16l15.539 22.199h-31.079z"
       fill="#f99e9c"
       id="path1745" />
    <path
       d="M351.415 18.435h25.16l17.759 22.199h-27.38z"
       fill="#f9f9f9"
       id="path1747" />
    <path
       d="M376.574 18.435h25.16l20.719 22.199h-28.12z"
       fill="#f99e9c"
       id="path1749" />
    <path
       d="M408.393 57.161c-7.765 0-14.06-7.4-14.06-16.527h28.12c0 9.128-6.295 16.527-14.06 16.527z"
       fill="#e44f4b"
       id="path1751" />
    <path
       d="M380.644 57.161c-7.56 0-13.69-7.4-13.69-16.527h27.38c0 9.128-6.13 16.527-13.69 16.527z"
       fill="#dbdcde"
       id="path1753" />
    <path
       d="M351.415 57.161c-8.582 0-15.539-7.4-15.539-16.527h31.079c0 9.128-6.957 16.527-15.54 16.527z"
       fill="#e44f4b"
       id="path1755" />
    <path
       d="M320.337 57.161c-8.583 0-15.54-7.4-15.54-16.527h31.079c0 9.128-6.957 16.527-15.54 16.527z"
       fill="#dbdcde"
       id="path1757" />
    <path
       d="M275.938 18.435h25.16l3.7 22.199h-32.56z"
       fill="#f99e9c"
       id="path1759" />
    <path
       d="M178.922.28h219.253a4 4 0 0 1 4 4v11.495H174.922V4.281a4 4 0 0 1 4-4z"
       fill="#e6e7e8"
       id="path1761" />
    <g
       fill="#fff"
       transform="translate(153.23 .28)"
       id="g1769">
      <circle
         cx="48.55"
         cy="8.264"
         r="2.066"
         id="circle1763" />
      <circle
         cx="40.286"
         cy="8.264"
         r="2.066"
         id="circle1765" />
      <circle
         cx="32.022"
         cy="8.264"
         r="2.066"
         id="circle1767" />
    </g>
    <path
       d="M195.581 66.391h51.649v51.648h-51.65z"
       fill="#ceebff"
       id="path1771" />
    <path
       d="M230.654 84.155c-.428-.544-3.653-.972-5.324-2.254 0 0-.233-.078-.388.116-.816 1.205-1.632 2.215-3.536 2.215s-2.72-1.01-3.536-2.215c-.117-.194-.39-.116-.39-.116-1.67 1.243-4.895 1.71-5.323 2.254-.932 1.204-2.253 3.847-3.147 5.556.816 1.36 2.681 2.176 4.002 2.293.428-.428 1.088-1.671 1.477-1.671.194 0 .583 1.321.583 4.158 0 2.137-.7 6.45-.7 7.81 1.671.622 5.09.583 7.034.583s5.362.039 7.033-.583c0-1.36-.7-5.673-.7-7.81 0-2.837.389-4.158.583-4.158.389 0 1.05 1.243 1.477 1.67 1.282-.116 3.147-.97 4.002-2.292-.894-1.71-2.215-4.352-3.147-5.556z"
       fill="#fff"
       fill-rule="nonzero"
       id="path1773" />
    <g
       fill="#e7ebed"
       transform="translate(195.581 66.391)"
       id="g1779">
      <rect
         height="4.132"
         rx="1"
         width="51.648"
         y="57.846"
         id="rect1775" />
      <rect
         height="4.132"
         rx="1"
         width="41.319"
         x="5.165"
         y="66.11"
         id="rect1777" />
    </g>
    <g
       transform="translate(262.724 66.391)"
       id="g1789">
      <path
         d="M0 0h51.648v51.648H0z"
         fill="#fadada"
         id="path1781" />
      <rect
         fill="#e7ebed"
         height="4.132"
         rx="1"
         width="51.648"
         y="57.846"
         id="rect1783" />
      <rect
         fill="#e7ebed"
         height="4.132"
         rx="1"
         width="41.319"
         x="5.165"
         y="66.11"
         id="rect1785" />
      <path
         d="M39.787 21.1c.358.892.034 1.562-.343 2.348-.173.358-.46.639-.573.975-.13.383-.154.848-.23 1.26-.216 1.17-.438 2.447-1.202 3.15-.635.583-2.206 1.054-3.324 1.146-4.013.324-5.674-1.673-6.643-4.41-.291-.826-.399-1.692-1.488-1.605-.873.071-.912.782-1.261 1.832-.752 2.27-2.154 4.016-5.04 4.238-1.696.13-3.771-.215-4.64-1.03-.804-.758-1.093-2.289-1.373-3.666-.102-.502-.22-.717-.458-1.087a4.032 4.032 0 0 1-.286-.516c-.317-.7-.75-1.422-.402-2.407 3.709-.596 7.02-.586 10.367.057 1.068.205 2.152.548 3.208.573 1.232.03 2.721-.444 3.894-.687 3.069-.632 6.43-.907 9.794-.172z"
         fill="#fff"
         fill-rule="nonzero"
         id="path1787" />
    </g>
    <g
       transform="translate(329.867 66.391)"
       id="g1799">
      <path
         d="M0 0h51.648v51.648H0z"
         fill="#fbe5b4"
         id="path1791" />
      <rect
         fill="#e7ebed"
         height="4.132"
         rx="1"
         width="51.648"
         y="57.846"
         id="rect1793" />
      <rect
         fill="#e7ebed"
         height="4.132"
         rx="1"
         width="41.319"
         x="5.165"
         y="66.11"
         id="rect1795" />
      <path
         d="M32.305 16.528a1 1 0 0 1 1 1v1.656a4.199 4.199 0 0 1 4.722 4.167v3.411a4.199 4.199 0 0 1-4.722 4.167v1.066h-.056a4 4 0 0 1-3.058 3.23c-1.349.306-2.935.46-4.758.46-1.824 0-3.41-.154-4.759-.46a4 4 0 0 1-3.114-3.9V17.527a1 1 0 0 1 1-1zm1 4.522v7.75a3.544 3.544 0 0 0 2.885-3.481v-.788a3.544 3.544 0 0 0-2.884-3.481z"
         fill="#fff"
         id="path1797" />
    </g>
  </g>
</svg>
