<?xml version="1.0" encoding="UTF-8" standalone="no"?>
<!-- Created with Inkscape (http://www.inkscape.org/) -->

<svg
   xmlns:dc="http://purl.org/dc/elements/1.1/"
   xmlns:cc="http://creativecommons.org/ns#"
   xmlns:rdf="http://www.w3.org/1999/02/22-rdf-syntax-ns#"
   xmlns:svg="http://www.w3.org/2000/svg"
   xmlns="http://www.w3.org/2000/svg"
   xmlns:xlink="http://www.w3.org/1999/xlink"
   xmlns:sodipodi="http://sodipodi.sourceforge.net/DTD/sodipodi-0.dtd"
   xmlns:inkscape="http://www.inkscape.org/namespaces/inkscape"
   width="210mm"
   height="297mm"
   viewBox="0 0 210 297"
   version="1.1"
   id="svg2980"
   inkscape:version="0.92.3 (2405546, 2018-03-11)"
   sodipodi:docname="q-cloud.svg">
  <defs
     id="defs2974">
    <linearGradient
       inkscape:collect="always"
       xlink:href="#linearGradient2962"
       id="linearGradient2964"
       x1="0.69849098"
       y1="50.185772"
       x2="96.456718"
       y2="50.185772"
       gradientUnits="userSpaceOnUse" />
    <linearGradient
       inkscape:collect="always"
       id="linearGradient2962">
      <stop
         style="stop-color:#ca2626;stop-opacity:1;"
         offset="0"
         id="stop2958" />
      <stop
         style="stop-color:#ca2626;stop-opacity:0;"
         offset="1"
         id="stop2960" />
    </linearGradient>
    <linearGradient
       inkscape:collect="always"
       xlink:href="#linearGradient2962"
       id="linearGradient3032"
       gradientUnits="userSpaceOnUse"
       x1="0.69849098"
       y1="50.185772"
       x2="96.456718"
       y2="50.185772" />
    <linearGradient
       inkscape:collect="always"
       xlink:href="#linearGradient2962"
       id="linearGradient3034"
       gradientUnits="userSpaceOnUse"
       x1="0.69849098"
       y1="50.185772"
       x2="96.456718"
       y2="50.185772" />
    <linearGradient
       inkscape:collect="always"
       xlink:href="#linearGradient2962"
       id="linearGradient3036"
       gradientUnits="userSpaceOnUse"
       x1="0.69849098"
       y1="50.185772"
       x2="96.456718"
       y2="50.185772" />
    <linearGradient
       inkscape:collect="always"
       xlink:href="#linearGradient2962"
       id="linearGradient3038"
       gradientUnits="userSpaceOnUse"
       x1="0.69849098"
       y1="50.185772"
       x2="96.456718"
       y2="50.185772" />
    <linearGradient
       inkscape:collect="always"
       xlink:href="#linearGradient2962"
       id="linearGradient3040"
       gradientUnits="userSpaceOnUse"
       x1="0.69849098"
       y1="50.185772"
       x2="96.456718"
       y2="50.185772" />
  </defs>
  <sodipodi:namedview
     id="base"
     pagecolor="#ffffff"
     bordercolor="#666666"
     borderopacity="1.0"
     inkscape:pageopacity="0.0"
     inkscape:pageshadow="2"
     inkscape:zoom="0.35"
     inkscape:cx="292.05388"
     inkscape:cy="359.64888"
     inkscape:document-units="mm"
     inkscape:current-layer="layer1"
     showgrid="false"
     inkscape:window-width="1920"
     inkscape:window-height="976"
     inkscape:window-x="0"
     inkscape:window-y="1107"
     inkscape:window-maximized="1" />
  <metadata
     id="metadata2977">
    <rdf:RDF>
      <cc:Work
         rdf:about="">
        <dc:format>image/svg+xml</dc:format>
        <dc:type
           rdf:resource="http://purl.org/dc/dcmitype/StillImage" />
        <dc:title />
      </cc:Work>
    </rdf:RDF>
  </metadata>
  <g
     inkscape:label="Layer 1"
     inkscape:groupmode="layer"
     id="layer1">
    <g
       id="g1682">
      <g
         style="fill:url(#linearGradient2964);fill-opacity:1;fill-rule:nonzero"
         transform="matrix(1.2803506,0,0,1.2888561,40.80215,60.527613)"
         id="Shopware6_onWhite-SignetSW">
        <g
           style="opacity:0.85;fill:url(#linearGradient3040);fill-opacity:1"
           id="g2094">
          <g
             style="fill:url(#linearGradient3034);fill-opacity:1"
             id="g2088"
             transform="translate(5.06087,5.05)">
            <path
               inkscape:connector-curvature="0"
               style="fill:url(#linearGradient3032);fill-opacity:1;"
               id="path2086"
               d="m 70.312348,6.9605833 c 7.186435,4.3598337 12.955826,11.2278337 16.658695,19.0889997 3.70287,7.878 5.339218,16.732334 3.91374,25.02275 C 89.459304,59.345917 84.972,67.021917 79.092956,73.166083 73.213913,79.31025 65.94313,83.90575 58.065044,86.094083 50.170087,88.282417 41.650956,88.072 33.528261,85.951 25.422435,83.813167 17.738348,79.7395 11.960522,73.696333 6.1826957,67.636333 2.328,59.59 0.88565217,51.063917 -0.53982609,42.529417 0.43017391,33.523583 3.9643478,25.637167 7.4985217,17.75075 13.59687,10.975333 20.994174,6.69125 28.391478,2.4071667 37.096174,0.61441667 45.775565,0.6565 54.454957,0.707 63.109043,2.5839167 70.312348,6.9605833 Z" />
          </g>
          <g
             style="fill:url(#linearGradient3038);fill-opacity:1"
             id="g2092">
            <path
               inkscape:connector-curvature="0"
               style="fill:url(#linearGradient3036);fill-opacity:1;opacity:1"
               id="path2090"
               d="m 67.368609,26.630333 c 6.857478,9.628667 14.204174,15.966417 17.63713,25.721334 3.416087,9.7465 2.935305,22.935416 -3.905304,32.681916 -6.840609,9.7465 -20.049479,16.092667 -32.204,15.040587 C 36.741913,99.047333 25.633304,90.605417 16.835826,80.858917 8.0383478,71.087167 1.5435652,60.002417 0.776,48.160167 0.00843478,36.3095 4.9849565,23.718167 13.782435,14.0895 22.579913,4.4608333 35.206783,-2.1630833 44.695913,0.96791667 54.176609,4.0989167 60.528,17.0185 67.368609,26.630333 Z" />
          </g>
        </g>
        <g
           style="fill:none;fill-rule:evenodd"
           transform="translate(29.503533,30.400554)"
           id="g3038">
          <rect
             style="fill:#e31b38"
             y="-5.4705486"
             x="-127.36719"
             width="0"
             height="0"
             rx="0"
             id="rect3034" />
        </g>
      </g>
      <path
         style="fill:#ffffff;fill-opacity:1;fill-rule:nonzero;stroke-width:1.2845962"
         inkscape:connector-curvature="0"
         d="m 112.43016,129.01007 2.3392,2.46687 -3.52736,3.0649 -2.52485,-2.54162 c -1.80701,0.92196 -3.8244,1.3954 -6.05222,1.42031 -2.59913,0 -4.857861,-0.57933 -6.776261,-1.73802 -1.9184,-1.15868 -3.39121,-2.73473 -4.41849,-4.72817 -1.02727,-1.99344 -1.5409,-4.21111 -1.5409,-6.65307 0,-2.56656 0.53838,-4.85898 1.61516,-6.87734 1.07678,-2.01836 2.58054,-3.60063 4.51132,-4.74685 1.93078,-1.14623 4.133811,-1.7318 6.609171,-1.75671 2.62388,0 4.89498,0.57933 6.81338,1.73802 1.91841,1.15869 3.38503,2.73473 4.39993,4.72817 1.0149,1.99344 1.52234,4.21111 1.52234,6.65307 0,1.76918 -0.25372,3.41997 -0.76117,4.95243 -0.50745,1.53246 -1.24386,2.87178 -2.20925,4.01801 z m -7.57455,-0.85967 -3.0818,-3.0649 3.89866,-3.17703 2.78477,2.9154 c 0.61883,-1.32066 0.92825,-2.91539 0.92825,-4.78424 0,-1.56983 -0.27229,-2.97768 -0.81686,-4.22358 -0.54458,-1.2459 -1.31812,-2.22392 -2.32064,-2.93408 -1.00252,-0.71016 -2.17211,-1.06524 -3.5088,-1.06524 -1.23768,0 -2.37014,0.34885 -3.397411,1.04655 -1.02727,0.69771 -1.85032,1.68818 -2.46916,2.97146 -0.61884,1.28328 -0.92825,2.75965 -0.92825,4.42915 0,2.44197 0.60026,4.42915 1.80081,5.96161 1.20055,1.53245 2.828071,2.29867 4.882621,2.29867 0.81687,0 1.55946,-0.12459 2.22781,-0.37377 z m 12.05322,11.19114 c -1.41424,0 -2.5607,-1.15408 -2.5607,-2.57771 0,-1.42363 1.14646,-2.57771 2.5607,-2.57771 1.41424,0 2.5607,1.15408 2.5607,2.57771 0,1.42363 -1.14646,2.57771 -2.5607,2.57771 z"
         id="path3036" />
    </g>
  </g>
</svg>
