<?xml version="1.0" encoding="UTF-8" standalone="no"?>
<!-- Created with Inkscape (http://www.inkscape.org/) -->

<svg
   xmlns:dc="http://purl.org/dc/elements/1.1/"
   xmlns:cc="http://creativecommons.org/ns#"
   xmlns:rdf="http://www.w3.org/1999/02/22-rdf-syntax-ns#"
   xmlns:svg="http://www.w3.org/2000/svg"
   xmlns="http://www.w3.org/2000/svg"
   xmlns:sodipodi="http://sodipodi.sourceforge.net/DTD/sodipodi-0.dtd"
   xmlns:inkscape="http://www.inkscape.org/namespaces/inkscape"
   width="210mm"
   height="297mm"
   viewBox="0 0 210 297"
   version="1.1"
   id="svg3943"
   inkscape:version="0.92.3 (2405546, 2018-03-11)"
   sodipodi:docname="q-red.svg">
  <defs
     id="defs3937" />
  <sodipodi:namedview
     id="base"
     pagecolor="#ffffff"
     bordercolor="#666666"
     borderopacity="1.0"
     inkscape:pageopacity="0.0"
     inkscape:pageshadow="2"
     inkscape:zoom="0.35"
     inkscape:cx="825.05595"
     inkscape:cy="275.38247"
     inkscape:document-units="mm"
     inkscape:current-layer="layer1"
     showgrid="false"
     inkscape:window-width="1920"
     inkscape:window-height="1052"
     inkscape:window-x="29"
     inkscape:window-y="0"
     inkscape:window-maximized="1" />
  <metadata
     id="metadata3940">
    <rdf:RDF>
      <cc:Work
         rdf:about="">
        <dc:format>image/svg+xml</dc:format>
        <dc:type
           rdf:resource="http://purl.org/dc/dcmitype/StillImage" />
        <dc:title></dc:title>
      </cc:Work>
    </rdf:RDF>
  </metadata>
  <g
     inkscape:label="Layer 1"
     inkscape:groupmode="layer"
     id="layer1">
    <path
       id="path3036"
       d="m 99.956951,135.81364 2.339199,2.46687 -3.527359,3.0649 -2.52485,-2.54162 c -1.80701,0.92196 -3.8244,1.3954 -6.05222,1.42031 -2.59913,0 -4.85787,-0.57933 -6.77627,-1.73802 -1.9184,-1.15868 -3.39121,-2.73473 -4.41849,-4.72817 -1.027265,-1.99344 -1.540895,-4.21111 -1.540895,-6.65307 0,-2.56656 0.53838,-4.85898 1.615155,-6.87734 1.07678,-2.01836 2.58054,-3.60063 4.51132,-4.74685 1.93078,-1.14623 4.13382,-1.7318 6.60918,-1.75671 2.62388,0 4.89498,0.57933 6.81338,1.73802 1.91841,1.15869 3.385029,2.73473 4.399929,4.72817 1.0149,1.99344 1.52234,4.21111 1.52234,6.65307 0,1.76918 -0.25372,3.41997 -0.76117,4.95243 -0.50745,1.53246 -1.24386,2.87178 -2.209249,4.01801 z m -7.57455,-0.85967 -3.0818,-3.0649 3.89866,-3.17703 2.78477,2.9154 c 0.61883,-1.32066 0.92825,-2.91539 0.92825,-4.78424 0,-1.56983 -0.27229,-2.97768 -0.81686,-4.22358 -0.54458,-1.2459 -1.31812,-2.22392 -2.32064,-2.93408 -1.00252,-0.71016 -2.17211,-1.06524 -3.5088,-1.06524 -1.23768,0 -2.37014,0.34885 -3.39742,1.04655 -1.02727,0.69771 -1.85032,1.68818 -2.46916,2.97146 -0.61884,1.28328 -0.92825,2.75965 -0.92825,4.42915 0,2.44197 0.60026,4.42915 1.80081,5.96161 1.20055,1.53245 2.82808,2.29867 4.88263,2.29867 0.81687,0 1.55946,-0.12459 2.22781,-0.37377 z m 12.053219,11.19114 c -1.41424,0 -2.5607,-1.15408 -2.5607,-2.57771 0,-1.42363 1.14646,-2.57771 2.5607,-2.57771 1.41424,0 2.56069,1.15408 2.56069,2.57771 0,1.42363 -1.14645,2.57771 -2.56069,2.57771 z"
       inkscape:connector-curvature="0"
       style="fill:#ca2626;fill-opacity:1;fill-rule:nonzero;stroke-width:1.2845962" />
  </g>
</svg>
